<svg id="레이어_1" data-name="레이어 1" xmlns="http://www.w3.org/2000/svg" viewBox="0 0 1920 1080"><defs><style>.cls-1{fill:none;stroke:#000;stroke-miterlimit:10;stroke-width:3px;}</style></defs><path d="M1508.76911-457.99668q65.53484-8.17186,131.643-9.912c21.5763-.544,41.95088.43309,60.84685,11.96065,15.2399,9.29716,28.44437,22.32083,39.52078,36.24393,21.26714,26.7329,35.466,59.75835,38.85969,93.83735,3.47378,34.8828-5.48345,68.12488-25.56793,96.78341-21.01784,29.99035-49.76425,54.74038-63.86482,89.23815-6.24543,15.27977-9.78576,32.17938-7.33255,48.67546,2.5108,16.88326,11.78623,30.16752,23.6029,42.012,6.15662,6.17112,12.67592,11.99073,18.51429,18.47446,3.36357,3.73537,10.35425,9.4207,6.1016,14.62349-6.07529,7.43262-20.37513,9.78971-29.04881,12.08945-11.35452,3.01054-22.9643,5.26668-34.15073,8.87994-12.96366,4.18732-24.69852,14.5786-34.06785,24.16548-22.21857,22.73448-36.38717,53.34323-38.56486,85.11691-2.21644,32.33922,8.60883,64.9561,28.38474,90.472a131.08444,131.08444,0,0,0,35.57489,31.898c16.27131,9.84393,34.40134,15.99984,52.26565,22.23465,35.34871,12.337,67.60247,28.39313,92.32293,57.35351,23.12752,27.09423,36.16484,61.69865,33.82407,97.48113-2.3261,35.55821-19.61182,68.27519-49.08521,88.62191-27.34134,18.87487-60.4668,26.63421-92.23316,34.52682-16.05322,3.98855-32.13429,7.97976-47.819,13.2711-13.55965,4.57444-30.30534,9.65488-40.40108,20.334-11.88812,12.575-4.75785,27.4792,3.86449,39.63763a227.51924,227.51924,0,0,0,35.91754,39.74827c24.83217,21.67831,54.27838,34.6086,82.57739,50.82151,24.97407,14.308,52.31611,34.23419,53.56324,65.793,1.57087,39.75093-36.91392,65.58124-71.402,73.34492-19.45755,4.38012-39.505,5.04422-59.36431,5.68928-1.92563.06255-1.93423,3.06283,0,3,36.00629-1.16954,75.82561-2.64782,105.197-26.29829,23.632-19.029,36.52267-50.40191,22.70191-79.14513-12.31048-25.60227-40.07749-40.42555-64.06948-53.12055-14.54692-7.69728-29.40139-14.92739-43.16013-24.00664a225.56568,225.56568,0,0,1-44.021-38.08172c-11.61274-13.01783-35.88536-37.8835-19.6833-55.261,6.24979-6.70322,15.45008-10.45322,23.76709-13.87318,7.71965-3.17432,15.61882-5.90091,23.59339-8.359,32.30332-9.95727,65.99382-15.33778,97.61167-27.52537,29.34816-11.31271,55.85131-29.51317,71.03334-57.75081,15.56667-28.95305,18.69269-64.20827,9.816-95.74038-8.96449-31.84411-29.74193-59.485-55.7581-79.5277a189.29457,189.29457,0,0,0-45.17736-25.44548c-19.18023-7.7138-39.21357-13.2245-58.05462-21.7958-34.30026-15.60411-60.67709-44.06327-72.54124-80.00833a128.35258,128.35258,0,0,1,10.53849-103.388,132.325,132.325,0,0,1,36.08377-41.19917c5.78881-4.29265,11.72024-8.27607,18.63455-10.42828,5.45216-1.69709,11.01494-3.04115,16.55717-4.405,11.87044-2.92109,24.041-5.49578,35.39921-10.11427,5.142-2.09085,14.10575-5.79089,13.92689-12.65751-.11492-4.41222-4.50746-8.48779-7.15123-11.53322-5.94916-6.853-12.73357-12.90532-19.15881-19.29548-14.6191-14.53925-24.45387-30.99684-24.239-52.16688.41213-40.60224,28.75376-71.97656,53.21577-101.31979,22.18989-26.61771,40.23881-54.67354,44.19378-89.82128,3.59574-31.95529-3.56359-64.62508-17.65725-93.33207-14.4263-29.38455-37.52609-58.3937-66.77967-74.059-17.65348-9.45342-36.76384-10.17384-56.36319-9.70056q-33.65494.81267-67.23946,3.3465-32.92715,2.47923-65.69793,6.597c-1.89059.23574-1.9142,3.23869,0,3Z"/><path d="M1660.22816,844.44488q-232.07761,3.97488-464.186,5.72739c-153.26083,1.15343-306.88216,4.05728-460.0474-2.7563-86.34663-3.84115-172.59238-11.32616-257.91853-25.33846-1.88862-.31015-2.701,2.58025-.79752,2.89284C627.968,849.71663,780.96073,854.0258,933.38328,854.31753c155.09738.29685,310.22013-1.27729,465.3051-3.0961q130.77471-1.53371,261.53978-3.77655c1.92837-.033,1.93442-3.03313,0-3Z"/><path d="M478.70633,823.23361c-6.13562-14.19059-2.62219-30.05837.11106-44.60745,1.4285-7.60387,2.81658-15.27836,3.01349-23.032a75.36618,75.36618,0,0,0-2.38543-20.527,92.42151,92.42151,0,0,0-19.49965-36.71c-9.48373-11.12329-21.42111-19.98468-34.34749-26.7228a172.3404,172.3404,0,0,0-42.04191-14.928q-2.69009-.60287-5.39445-1.13852c-1.88546-.37557-2.69236,2.5154-.79752,2.89284a179.40227,179.40227,0,0,1,42.18177,13.50244c13.07795,6.22889,25.29351,14.4716,35.21571,25.08572a91.1525,91.1525,0,0,1,20.835,35.398,73.72886,73.72886,0,0,1,3.24955,20.37044c.10662,7.53562-1.0775,15.00221-2.43442,22.39166-2.65619,14.465-6.46893,29.83841-2.1953,44.38091a44.92393,44.92393,0,0,0,1.89919,5.15783c.76414,1.76731,3.34943.24131,2.59042-1.51416Z"/><path d="M373.764,658.63579l29.33953,20.52252c9.21133,6.44318,18.6373,12.664,27.60568,19.44338,7.27965,5.50286,14.703,12.46384,16.75979,21.72915.96663,4.35445.61163,9.2461-2.03359,12.96933-2.73948,3.85591-7.75574,5.92608-12.14657,7.20374-9.151,2.6628-18.98591,1.65192-27.8766-1.50615-9.24387-3.28353-17.2958-9.03629-24.17695-15.95278-7.13194-7.16859-12.99678-15.46146-18.37924-23.98961-5.57286-8.82981-10.73977-17.913-15.98008-26.94179-10.50362-18.09715-21.25227-36.21533-34.91477-52.15305q-2.56516-2.99233-5.26455-5.865c-1.32413-1.41066-3.44246.71385-2.12132,2.12132,14.952,15.929,26.42529,34.62683,37.38606,53.41531,5.47144,9.3789,10.82455,18.83166,16.52129,28.077,5.46313,8.86621,11.34935,17.56206,18.46228,25.20268,6.93417,7.44861,15.06829,13.7897,24.49439,17.74475,9.05356,3.79875,19.13261,5.42785,28.85286,3.63743a34.43054,34.43054,0,0,0,13.5284-5.34708,16.52581,16.52581,0,0,0,6.98329-11.80326c1.18542-9.86085-4.70982-18.86365-11.5909-25.32937a105.72956,105.72956,0,0,0-11.47646-9.06878c-4.83654-3.42152-9.70683-6.79614-14.56149-10.19189l-30.562-21.37763-7.33488-5.13063c-1.58548-1.109-3.08642,1.49064-1.51416,2.59041Z"/><path d="M307.91288,615.44844a236.4247,236.4247,0,0,1,83.69529,3.27816,197.72248,197.72248,0,0,1,38.53053,12.30226c11.40152,5.13438,22.21715,11.88071,30.84779,21.016,9.11538,9.64834,15.82157,21.96666,17.16828,35.30732.19206,1.90258,3.19406,1.9224,3,0-1.24229-12.30629-6.61374-23.69555-14.37046-33.23528-8.08316-9.94122-18.68795-17.54337-30.07707-23.273-12.13228-6.10347-25.2017-10.3511-38.35761-13.61628a239.35,239.35,0,0,0-91.23427-4.672c-1.90384.26784-1.09378,3.15891.79752,2.89284Z"/><path d="M479.00575,689.75855c3.22038-16.88031,19.6077-27.38637,35.4142-30.67978,20.83886-4.34194,42.14376.6688,63.16166-.49468,10.83166-.5996,21.685-2.78271,31.18559-8.21613a1.50112,1.50112,0,0,0-1.51416-2.59041c-17.99376,10.29071-39.60323,8.12923-59.4378,7.01514-19.4708-1.09366-40.43283-.96074-56.66532,11.40314-7.429,5.65851-13.26153,13.45866-15.037,22.7652-.35992,1.88662,2.53088,2.69483,2.89284.79752Z"/><path d="M607.50172,646.331c-1.47548,13.48959-8.10423,25.9104-17.0782,35.915-9.7282,10.84543-22.05593,18.763-35.23929,24.77712a210.364,210.364,0,0,1-22.04116,8.41452c-3.74349,1.2229-7.50869,2.37832-11.28361,3.50006-3.77386,1.12143-7.57456,2.4382-11.43362,3.22925a9.42529,9.42529,0,0,1-8.07831-1.59869,12.586,12.586,0,0,1-3.9513-6.13607c-1.77608-5.77459.08309-11.37479,4.10276-15.72787,4.68966-5.07863,11.20542-8.12284,17.51122-10.67869a141.39584,141.39584,0,0,1,23.56474-7.23215q2.96046-.63228,5.94545-1.13771c1.89916-.32451,1.09392-3.216-.79752-2.89284a142.655,142.655,0,0,0-25.16637,6.69219c-7.1183,2.61517-14.40528,5.5845-20.31876,10.44412-4.98424,4.096-8.81222,9.93711-8.53308,16.58766.23085,5.50013,2.95194,11.52912,8.19236,13.91824,3.33623,1.521,6.87843,1.1067,10.3255.16736,4.01781-1.09486,8.00993-2.30525,11.99617-3.50923,7.95493-2.40264,15.86305-4.99023,23.581-8.07892,14.57881-5.83437,28.57528-13.5019,39.86439-24.56387,10.18952-9.98452,18.25562-22.6522,21.04111-36.7835.346-1.75557.602-3.5275.79649-5.306.20963-1.91652-2.792-1.90167-3,0Z"/><path d="M552.17751,674.592c-14.82617-5.76939-31.61908-2.2141-44.83584,5.94937-14.07574,8.694-24.20857,22.43059-32.65633,36.36491-9.28545,15.31609-17.27082,31.381-25.97006,47.028-8.60091,15.47013-17.80237,31.23284-29.69317,44.44835a38.04453,38.04453,0,0,1-9.63322,8.0979,31.1708,31.1708,0,0,1-12.8929,3.47971c-9.29134.68177-18.76017-.3015-28.06532-.44555-19.50423-.30194-39.01292.20944-58.49562,1.11626-39.03324,1.81679-77.97351,5.22848-117.01023,6.98124-38.909,1.747-78.038,1.83064-116.73644-3.089q-7.3288-.93171-14.62162-2.1162c-1.88868-.30438-2.70156,2.586-.79751,2.89284,38.18969,6.15463,76.944,7.14594,115.54676,5.94793,39.20024-1.21656,78.2884-4.57759,117.43671-6.78051,19.48844-1.09664,38.99841-1.90843,58.51954-2.02486,9.82007-.05857,19.642.06021,29.45627.408,8.4589.29976,17.39249,1.02581,25.46769-2.07261,7.478-2.86929,12.93554-8.77726,17.83244-14.89442a231.20874,231.20874,0,0,0,15.24815-21.64078c9.521-15.16995,17.66386-31.13908,26.22365-46.85584,8.20553-15.0663,16.601-30.59017,28.63409-43.00479,11.59859-11.96638,27.52361-20.75161,44.62884-19.55768a39.58192,39.58192,0,0,1,11.6166,2.66063c1.80017.70051,2.58015-2.19915.79752-2.89284Z"/><path d="M.16187,127.86842a456.86128,456.86128,0,0,0,24.8888,74.45963,177.48134,177.48134,0,0,0,8.49439,17.28967,132.81914,132.81914,0,0,0,10.535,15.568A346.3117,346.3117,0,0,0,68.6062,262.91136c16.85518,17.47859,35.18125,33.64129,55.37018,47.18382,9.89747,6.63912,20.47685,12.88126,32.17508,15.68381a54.28333,54.28333,0,0,0,8.953,1.3836c2.379.16152,5.21635.41376,7.28392-1.02785,4.72676-3.29572-1.0533-10.23154-3.54422-13.13139-6.71084-7.81256-16.50823-12.4197-26.20287-15.332-11.513-3.4586-23.58366-4.64194-35.04473-8.30792a68.37855,68.37855,0,0,1-8.37546-3.264c-1.73628-.8196-3.26081,1.76592-1.51416,2.59041,20.03018,9.45506,44.35014,7.28748,62.72112,20.64648a34.089,34.089,0,0,1,9.555,10.40079c.517.89616,1.65018,2.48888,1.06091,3.55751-.46237.8385-1.82791.9301-2.66425.96584a38.58143,38.58143,0,0,1-8.46621-.7483c-11.43833-2.08944-21.82322-7.78467-31.47022-14.05567-19.78444-12.8608-37.75106-28.37678-54.29605-45.15875-8.30041-8.41932-16.37772-17.12492-23.92544-26.22853a143.99316,143.99316,0,0,1-19.68115-30.82344c-5.32835-11.3379-9.871-23.08348-14.04513-34.88966q-6.325-17.88981-11.16229-36.26-1.18489-4.501-2.2785-9.02515c-.45434-1.87549-3.348-1.08129-2.89283.79752Z"/><path d="M74.22165,264.9829c8.98954,10.52221,22.27726,16.30985,35.67863,18.68469a131.34122,131.34122,0,0,0,23.69185,1.7143c8.14975-.047,16.31569-.39011,24.43191-1.1389,6.52477-.602,14.03727-1.01681,19.1369-5.66975,2.25406-2.05663,3.72807-5.2394,2.2524-8.17482-1.15293-2.29342-3.754-3.462-6.12844-4.02827-3.27959-.78214-6.76238-.66923-10.10914-.815l-12.41542-.54076-24.83084-1.08152c-8.29794-.36142-16.59694-.704-24.8939-1.08709-7.8097-.36057-15.65834-.8531-23.30275-2.59027q-2.84712-.647-5.63048-1.53008c-1.84506-.58353-2.63467,2.31181-.79752,2.89284,14.32935,4.53194,29.82751,4.23455,44.69231,4.882l47.1786,2.05489c3.17355.13823,6.52573-.02092,9.62214.785,1.82674.47546,4.38794,1.51809,4.22566,3.81077-.20973,2.96314-3.978,5.00332-6.41513,5.90689a38.791,38.791,0,0,1-9.39527,1.86707c-7.66613.82455-15.37428,1.21816-23.08081,1.39084a159.92139,159.92139,0,0,1-22.41662-.79755c-14.67681-1.74023-29.54625-7.15471-39.37276-18.65658-1.256-1.47015-3.3695.66034-2.12132,2.12132Z"/><path d="M48.7339,242.49451a81.65681,81.65681,0,0,1-2.17539,20.29611c-1.46961,6.16882-3.51383,11.98474-7.80788,16.77055a67.597,67.597,0,0,0-5.89981,7.06874,47.25033,47.25033,0,0,0-4.25863,7.9487,72.90711,72.90711,0,0,0-3.03413,8.43557,20.04656,20.04656,0,0,0-.87976,8.72931c.79706,4.91607,4.82907,7.99338,9.63754,8.37508a14.46551,14.46551,0,0,0,12.08243-5.19871c3.56646-4.24658,5.06317-9.73918,5.9774-15.10179a173.33807,173.33807,0,0,0,2.11313-20.384c.38833-7.69022.41031-15.39267.37817-23.09079-.02083-4.99116.65836-12.81927-4.94894-15.285-1.75081-.76988-3.27944,1.81417-1.51416,2.59042,4.3158,1.89779,3.44562,8.66915,3.462,12.44886.0281,6.4711.02054,12.94426-.20905,19.41215-.22619,6.37192-.6607,12.74543-1.50419,19.06752-.69309,5.19478-1.46535,10.70764-3.993,15.379-2.09033,3.86313-5.48418,6.85736-10.01466,7.16943-4.23062.29142-8.0709-1.88571-8.5982-6.37469a19.79794,19.79794,0,0,1,1.265-8.12539,68.77416,68.77416,0,0,1,2.981-7.91409,44.36446,44.36446,0,0,1,4.13792-7.27226c1.7331-2.438,3.89922-4.49734,5.83012-6.76984,4.2578-5.01108,6.33244-11.22477,7.79914-17.543a85.08788,85.08788,0,0,0,2.174-20.63191c-.032-1.92845-3.03211-1.93441-3,0Z"/><path d="M76.39963,270.53222l-.23778,37.98455-.1189,18.99228-.05788,9.24624a68.36565,68.36565,0,0,0,.088,9.02985c.608,4.73651,4.90627,7.15951,9.417,6.13707,4.80661-1.0895,7.36563-5.9683,8.54535-10.34358,1.54055-5.71349,1.61394-11.70967,1.68382-17.586.07152-6.01426.10829-12.09465-1.25529-17.98975-2.7054-11.69611-10.29651-21.471-13.72847-32.90484-.55364-1.84449-3.45-1.05872-2.89284.79752,2.879,9.59143,8.60664,17.94534,12.03947,27.30649a48.665,48.665,0,0,1,2.8252,15.56337A147.05044,147.05044,0,0,1,92.376,333.402c-.39762,4.64635-1.12325,10.546-4.67318,13.96427a6.15967,6.15967,0,0,1-5.05806,1.76456,4.061,4.061,0,0,1-3.64295-3.97217,77.74659,77.74659,0,0,1-.01673-8.40333l.05475-8.74644.11108-17.74279.24873-39.73384a1.5009,1.5009,0,0,0-3,0Z"/><path d="M21.842,193.26119c17.32518,17.25775,41.22915,25.74689,65.10662,28.655,5.954.72515,13.03128,1.47948,16.82434,6.78192,1.199,1.67618,2.87427,5.54049.84345,7.25794-1.01816.86105-2.787.68427-4.027.75873-1.82908.10984-3.65867.2129-5.48956.28771-6.67007.27253-13.44686.21334-19.96658-1.3802a46.35878,46.35878,0,0,1-16.90157-8.45062c-5.8128-4.4-11.05107-9.59013-16.31049-14.62242a138.18236,138.18236,0,0,1-15.53066-16.921c-1.14121-1.52966-3.74664-.03563-2.59041,1.51416a134.39363,134.39363,0,0,0,14.346,15.93561c4.95147,4.80384,9.93762,9.64767,15.25027,14.05406,5.12978,4.25472,10.70679,8.01469,17.03566,10.23033,6.71237,2.3499,13.93625,2.8572,20.99823,2.74715,3.51-.0547,7.0224-.24054,10.52459-.47792a8.19393,8.19393,0,0,0,4.20187-1.09052,5.4797,5.4797,0,0,0,2.18827-3.6745c1.03019-6.07294-4.16393-11.2606-9.31438-13.40991a38.3059,38.3059,0,0,0-10.09037-2.29747c-3.27082-.41145-6.53355-.82347-9.78049-1.4A129.26727,129.26727,0,0,1,60.42225,213.004c-13.55084-4.57353-26.285-11.72977-36.45895-21.86416a1.50086,1.50086,0,0,0-2.12132,2.12132Z"/><path d="M23.6303,199.99131l.12351,18.34672c.04032,5.98844.20715,11.993.02844,17.97993a51.547,51.547,0,0,1-2.87559,16.51963,61.59528,61.59528,0,0,1-7.442,13.67c-3.01624,4.33-6.39067,8.39222-9.78763,12.42519-.66016.78376-1.52815,2.08383-2.59,2.35548-1.09074.27906-1.69028-1.65227-1.97119-2.44587a14.896,14.896,0,0,1-.48393-7.32913c.86149-5.37624,3.35133-10.40666,5.52285-15.34547q3.5783-8.13835,7.35312-16.18838,8.46726-18.057,17.90683-35.635c.91276-1.701-1.6762-3.21781-2.59041-1.51416q-9.08916,16.938-17.29348,34.3303Q5.53576,245.63708,1.758,254.21377c-2.33737,5.3066-5.07787,10.727-6.01883,16.502a18.97854,18.97854,0,0,0,.18947,7.97654c.59418,2.22008,1.85534,5.45519,4.54208,5.645,2.67075.18872,4.488-2.28231,6.01085-4.09531,1.78387-2.12376,3.55421-4.25954,5.26708-6.44122,7.085-9.02414,13.03721-18.85229,14.5132-30.42854.88846-6.96829.56586-14.06107.51869-21.06736l-.15022-22.31357a1.5009,1.5009,0,0,0-3,0Z"/><path d="M9.34494,151.29305a97.25523,97.25523,0,0,0,27.121,10.18183c4.55015.96,9.19713,1.2844,13.74587,2.2165,4.12342.84494,8.15661,2.491,10.2473,6.37129,1.80378,3.34782,1.03761,7.2182-2.51385,8.95569-3.97088,1.94267-8.44061.32687-12.0493-1.64067A126.40215,126.40215,0,0,1,24.1453,162.29215,74.21205,74.21205,0,0,1,5.91806,139.78962c-.87045-1.72372-3.45944-.20674-2.59041,1.51416a75.182,75.182,0,0,0,17.326,21.90859,131.32708,131.32708,0,0,0,23.33758,16.54018c4.08521,2.27908,8.81585,4.016,13.498,2.6346,3.93046-1.15962,6.98136-4.42926,6.96611-8.66409-.01492-4.146-2.708-8.05384-6.137-10.20718-4.10309-2.57664-9.06363-3.06833-13.75365-3.6899A95.06049,95.06049,0,0,1,10.8591,148.70264c-1.689-.939-3.20369,1.65113-1.51416,2.59041Z"/><circle class="cls-1" cx="116" cy="335" r="9.5"/><circle class="cls-1" cx="216" cy="371" r="9.5"/><circle class="cls-1" cx="133.5" cy="410.5" r="8"/><circle class="cls-1" cx="126" cy="216" r="10.5"/><path d="M1.94711,78.38359c13.34388,20.078,37.62076,29.0838,59.20557,37.259,25.839,9.7865,52.5945,17.61933,80.11013,20.79328a204.49977,204.49977,0,0,0,45.975.305c1.89774-.21065,1.91917-3.213,0-3-26.99777,2.99672-54.22977-.15369-80.4851-6.7194a389.95608,389.95608,0,0,1-39.07443-12.14094c-11.49347-4.19606-23.0572-8.563-33.97383-14.12138-11.295-5.751-22.05491-13.18861-29.16688-23.88973C3.47381,75.2689.87438,76.76949,1.94711,78.38359Z"/><path d="M189.05685,134.00079c-8.336-3.30477-16.78928-6.65018-25.71532-7.94491-9.24064-1.34036-18.69237-.10316-27.95249.50273l-16.21059,1.06065c-1.9167.12541-1.93075,3.12632,0,3q14.00144-.91611,28.00287-1.83218a80.02925,80.02925,0,0,1,13.678-.04773,68.22031,68.22031,0,0,1,13.04975,2.882c4.86724,1.51954,9.613,3.39418,14.35028,5.27225,1.795.71161,2.574-2.18854.79752-2.89284Z"/><path d="M116.5606,129.87426c8.82978,10.00973,18.9203,21.77977,17.27652,36.13321a22.01248,22.01248,0,0,1-1.16253,4.912c-.42485,1.1834-1.09672,3.036-2.38369,3.556-2.44837.98912-3.36486-3.6037-3.5988-5.083-1.17012-7.39953-1.017-14.94681-2.37252-22.32584-1.27653-6.94887-4.018-13.91151-9.3647-18.73529-1.43028-1.29039-3.55849.82472-2.12132,2.12132,5.24255,4.72978,7.64,11.58248,8.76291,18.38834.68438,4.148.91621,8.356,1.24289,12.54249.163,2.08827.34445,4.17579.60539,6.2544a24.65447,24.65447,0,0,0,.93934,5.04757c.88371,2.54275,2.79251,5.22679,5.82576,4.86392,3.53565-.423,5.04811-4.47456,5.86587-7.43734,1.96861-7.13238.60247-14.79112-2.36255-21.44035-3.52335-7.90131-9.36527-14.49554-15.03125-20.91869-1.2797-1.45071-3.39477.67771-2.12132,2.12133Z"/><path d="M88.50432,122.38683c4.67095-.60267,8.56163-2.98951,12.23546-5.80887a139.45451,139.45451,0,0,1,11.39719-8.27343,86.45074,86.45074,0,0,1,26.52982-10.82187c2.35412-.528,4.73157-.96458,7.1227-1.28753,2.01955-.27275,4.30477-.56624,6.25645.19656a4.15819,4.15819,0,0,1,2.52127,4.49027,7.23023,7.23023,0,0,1-3.27328,5.03613c-3.86428,2.73753-8.9606,3.62983-13.58079,4.02926-5.072.43848-10.17287.28886-15.24777.67765a78.4937,78.4937,0,0,0-17.23983,3.65527c-5.96106,1.84785-11.90026,3.76871-17.84883,5.65636-1.83348.58182-1.0501,3.47914.79752,2.89284,5.649-1.79259,11.29278-3.6027,16.94807-5.3753a79.04568,79.04568,0,0,1,16.45043-3.75491c5.3681-.48425,10.7711-.28772,16.14041-.75191,4.98506-.431,10.33423-1.36252,14.61605-4.11606,3.63154-2.33537,6.42716-6.67856,4.83619-11.09712-1.69482-4.707-6.86094-5.12078-11.14132-4.56982a88.62589,88.62589,0,0,0-43.22229,18.00512c-4.26457,3.31585-8.70642,7.496-14.29745,8.21736-1.88819.24363-1.91249,3.24677,0,3Z"/><path d="M63.8394,115.97678c3.46806,8.09609,1.31621,17.2404.56652,25.64428-.68814,7.71392-.09912,15.96351,5.09785,22.13834,2.14248,2.54561,5.89835,5.48294,9.4504,4.65008,3.4217-.80228,4.20792-4.60542,4.30121-7.61534a63.84876,63.84876,0,0,0-3.54025-22.77231,65.34335,65.34335,0,0,0-13.23946-22.41052c-1.29763-1.43514-3.414.6917-2.12132,2.12132a62.1776,62.1776,0,0,1,15.85442,38.34494,52.42969,52.42969,0,0,1,.02739,5.24387,5.90078,5.90078,0,0,1-1.04175,3.60532c-2.18924,2.41627-6.633-2.05452-7.90738-3.70818-4.55814-5.9149-4.47788-13.75537-3.76456-20.82.87939-8.70942,2.48172-17.59168-1.09265-25.936-.758-1.7694-3.34306-.24288-2.59042,1.51416Z"/><path d="M45.09133,105.61708c9.40258,2.25041,18.71527-1.67329,26.731-6.32762a62.08189,62.08189,0,0,1,6.34527-3.509,23.04424,23.04424,0,0,1,7.17088-1.65974c5.09291-.44573,10.25333-.4008,15.36176-.55117,2.562-.07541,5.12816-.19938,7.69119-.224,1.35479-.013,3.44007-.02972,4.42806,1.09144,1.392,1.57963-.90386,3.28966-2.24584,3.71139-2.21126.6949-4.70344.66882-6.99138.95839a147.06786,147.06786,0,0,0-14.95858,2.66859c-4.93217,1.15095-9.76147,2.67155-14.65941,3.9512-9.62659,2.51505-20.79071,3.8781-29.22859-2.60142-1.53039-1.1752-3.026,1.42942-1.51416,2.59041,7.78757,5.98014,18.24439,5.855,27.40713,3.89429,5.40418-1.1564,10.65823-2.89924,16.0099-4.26245a141.84981,141.84981,0,0,1,15.92255-3.10707c2.59531-.35234,5.26432-.443,7.83266-.95944a7.24433,7.24433,0,0,0,5.25818-3.59,4.67108,4.67108,0,0,0-.71114-5.3752,7.6868,7.6868,0,0,0-4.95091-1.915,63.87991,63.87991,0,0,0-7.567.11813l-8.61329.25352c-5.15234.15166-10.62162-.04059-15.53535,1.75614a49.29732,49.29732,0,0,0-7.77413,4.0585,66.92062,66.92062,0,0,1-7.86362,4.01068c-5.28394,2.20872-11.07813,3.48347-16.74765,2.12652-1.87654-.44913-2.67731,2.44293-.79752,2.89284Z"/><path d="M23.45153,98.32491c4.10575,6.97088,4.11634,15.2738,4.3137,23.12069.19718,7.83914.49246,16.17155,4.60649,23.10493,1.90075,3.20333,5.35168,6.29394,9.34064,4.77317,3.85606-1.4701,3.777-6.60879,3.95369-10.0746a52.43985,52.43985,0,0,0-4.05972-22.77925A51.93374,51.93374,0,0,0,25.96719,95.64421c-1.50113-1.18046-3.63846.92828-2.12133,2.12132a50.1434,50.1434,0,0,1,18.84178,36.97889,48.88978,48.88978,0,0,1-.066,5.2547,17.3681,17.3681,0,0,1-.80234,5.4c-.65148,1.53236-2.6246,1.55417-3.91081.85562a9.62587,9.62587,0,0,1-3.50532-4.22036c-3.43539-6.51723-3.47983-14.19413-3.65746-21.37688-.20127-8.13916-.45748-16.63717-4.70381-23.84673a1.50112,1.50112,0,0,0-2.59041,1.51415Z"/><path d="M.44211,74.05417c4.03278,5.73126,10.91977,7.8247,17.64113,8.11311,4.02631.17276,8.06995-.16209,12.08916-.37112L42.564,81.15171c2.68752-.13977,6.79372-.8579,8.92264,1.29064,2.28922,2.31032.23531,5.87436-1.98643,7.30893-2.73584,1.76653-6.31882,2.35271-9.50689,2.668a39.83535,39.83535,0,0,1-29.8338-9.34656c-1.45372-1.2575-3.58465.85551-2.12132,2.12132a42.65938,42.65938,0,0,0,18.94092,9.44273c6.83321,1.4617,14.77257,1.58471,21.37279-.993,3.17258-1.23908,6.07565-3.45711,6.87008-6.93731a6.64732,6.64732,0,0,0-3.76344-7.81672c-3.28642-1.42841-7.16748-.82783-10.62938-.64778l-13.63078.70889C19.06409,79.37387,8.37952,80.139,3.03252,72.54,1.93,70.97307-.67232,72.47037.44211,74.05417Z"/></svg>