<svg id="레이어_1" data-name="레이어 1" xmlns="http://www.w3.org/2000/svg" viewBox="0 0 1920 1080"><defs><style>.cls-1{font-size:250px;font-family:FelixTitlingMT, Felix Titling;letter-spacing:0.2em;}.cls-2{letter-spacing:0.1751em;}</style></defs><path d="M1848.94642,757.89876a90.38,90.38,0,0,0-4.93-45.60418c-5.731-14.95346-15.06369-28.25067-26.0648-39.799-12.35415-12.96865-26.80547-23.87568-41.99509-33.30052a346.76545,346.76545,0,0,0-53.09061-26.52593,465.52359,465.52359,0,0,0-59.2083-19.28058,495.86867,495.86867,0,0,0-60.43436-11.51478,390.94346,390.94346,0,0,0-56.74709-3.27413c-16.0999.32045-32.33327,1.76835-48.01626,5.55237-12.028,2.90216-24.22865,7.2396-34.15417,14.82-8.07927,6.17037-14.24737,14.68379-15.84425,24.88444A40.30319,40.30319,0,0,0,1448,631.5c.06691,1.92514,3.06722,1.93412,3,0a34.42422,34.42422,0,0,1,10.13209-25.78787c8.01912-8.1253,18.91418-13.00285,29.67963-16.3486,14.36877-4.46562,29.45089-6.45956,44.43382-7.33056a355.40717,355.40717,0,0,1,54.39823,1.33166,476.66414,476.66414,0,0,1,59.0232,9.51286,483.54372,483.54372,0,0,1,59.07016,17.19427,376.61424,376.61424,0,0,1,54.36487,24.47342c15.79083,8.76711,30.94234,18.89128,44.38106,30.99865,11.92925,10.74744,22.57967,23.13547,30.04755,37.4201a89.21989,89.21989,0,0,1,10.447,42.93308,88.3013,88.3013,0,0,1-.924,11.20423c-.27832,1.88856,2.61193,2.70363,2.89284.79752Z"/><path d="M1846,757.5c-2.15848,24.45341-14.53879,46.751-29.44606,65.756-19.09851,24.34836-43.01914,44.80144-67.93581,62.95989-64.08193,46.70082-137.55293,80.74539-211.74586,107.933-81.35534,29.81219-166.32919,51.69085-252.466,61.77387-91.98083,10.76711-184.7524,2.24865-276.46043-7.55007-105.94116-11.31949-211.44334-26.49531-317.721-34.57947-46.52592-3.53907-94.07706-8.24169-140.73836-4.8507A529.28474,529.28474,0,0,0,439.289,1028.48625c-29.56533,8.66782-63.77162,20.448-84.75459,44.31181-2.727,3.10143-8.13215,8.64683-8.27163,12.91823-.11063,3.388,3.93358,9.2728,5.51788,12.06888a82.06688,82.06688,0,0,0,8.64886,12.35226c13.61341,16.17123,32.63181,26.90686,51.9589,34.80108,50.61613,20.67436,106.80282,24.75133,155.77712,50.00772,20.91484,10.78592,40.46416,25.173,54.8641,43.9593,16.88808,22.03237,21.96243,47.26908,24.21958,74.39924,2.00736,24.12782,3.65921,48.9513,16.55258,70.166,11.34086,18.66018,29.055,32.89084,48.5608,42.32647,49.24065,23.81938,108.88633,17.99427,161.66488,13.61016,29.15506-2.42179,58.17972-6.07854,87.05722-10.75137,30.10607-4.87164,60.28048-10.425,90.86507-10.86586,50.67612-.73051,108.27631,15.51389,132.14986,64.54239,10.53146,21.62819,12.8305,47.14685,2.813,69.37172-.787,1.74612,1.79749,3.27333,2.59041,1.51415,17.84992-39.60193-1.26885-85.648-34.727-110.28306-42.7477-31.475-99.06942-31.09333-149.294-24.26006-29.89552,4.06741-59.52559,9.76773-89.48519,13.4279q-44.71326,5.46262-89.78228,7.22016c-53.06,2.04-113.83375-1.85785-150.99389-45.2059-35.58-41.50474-15.04066-100.80624-42.30037-146.05267-24.48558-40.64186-69.80371-62.104-113.578-75.26057-26.85964-8.07279-54.34425-13.8702-81.17554-22.04358-22.86516-6.96522-45.99684-15.98352-64.44379-31.61417a83.51851,83.51851,0,0,1-21.34375-26.63214c-2.62332-5.35737-3.2838-7.29352-.05518-12.0422a61.04552,61.04552,0,0,1,6.965-8.381c11.13515-11.34921,25.50736-19.32643,39.86617-25.84559,35.16655-15.96623,73.91944-24.51644,111.98078-30.07237,40.31567-5.885,79.60607-5.29553,120.22521-3.17217,109.02838,5.69945,217.20624,19.952,325.56777,32.63335,51.09409,5.97947,102.267,11.41143,153.59807,14.90855,44.83124,3.05429,89.70763,5.13523,134.58969,2.05039,84.82915-5.8305,168.8776-24.56225,249.64144-50.74315,77.62711-25.16408,154.08083-57.55225,223.19887-101.2485,27.94743-17.6683,54.95629-37.39144,78.55885-60.63422,18.23846-17.96045,35.07751-38.52545,44.9427-62.37206A102.17818,102.17818,0,0,0,1849,757.5c.16972-1.92272-2.83129-1.91129-3,0Z"/><text class="cls-1" transform="translate(450.51099 646.17459)">G<tspan class="cls-2" x="239.94141" y="0">L</tspan><tspan x="419.21387" y="0">OBE</tspan></text></svg>