<svg id="레이어_1" data-name="레이어 1" xmlns="http://www.w3.org/2000/svg" xmlns:xlink="http://www.w3.org/1999/xlink" viewBox="0 0 1920 1080"><defs><style>.cls-1,.cls-2{fill:none;stroke:#000;stroke-miterlimit:10;}.cls-1{stroke-width:3px;}.cls-2{stroke-width:3.97085px;}</style></defs><image width="2560" height="1510" transform="translate(930 314) scale(0.38675)" xlink:href="KakaoTalk_20240126_170607625.png"/><path d="M1508.76911,622.00332q65.53484-8.17187,131.643-9.912c21.5763-.544,41.95088.43309,60.84685,11.96065,15.2399,9.29716,28.44437,22.32083,39.52078,36.24393,21.26714,26.7329,35.466,59.75835,38.85969,93.83735,3.47378,34.8828-5.48345,68.12488-25.56793,96.78341-21.01784,29.99035-49.76425,54.74038-63.86482,89.23815-6.24543,15.27977-9.78576,32.17938-7.33255,48.67546,2.5108,16.88326,11.78623,30.16752,23.6029,42.012,6.15662,6.17112,12.67592,11.99073,18.51429,18.47446,3.36357,3.73537,10.35425,9.4207,6.1016,14.62349-6.07529,7.43262-20.37513,9.78971-29.04881,12.08945-11.35452,3.01054-22.9643,5.26668-34.15073,8.87994-12.96366,4.18732-24.69852,14.5786-34.06785,24.16548-22.21857,22.73448-36.38717,53.34323-38.56486,85.11691-2.21644,32.33922,8.60883,64.9561,28.38474,90.472a131.08444,131.08444,0,0,0,35.57489,31.898c16.27131,9.84393,34.40134,15.99984,52.26565,22.23465,35.34871,12.337,67.60247,28.39313,92.32293,57.35351,23.12752,27.09423,36.16484,61.69865,33.82407,97.48113-2.3261,35.55821-19.61182,68.27519-49.08521,88.62191-27.34134,18.87487-60.4668,26.63421-92.23316,34.52682-16.05322,3.98855-32.13429,7.97976-47.819,13.2711-13.55965,4.57444-30.30534,9.65488-40.40108,20.334-11.88812,12.575-4.75785,27.4792,3.86449,39.63763a227.51924,227.51924,0,0,0,35.91754,39.74827c24.83217,21.67831,54.27838,34.6086,82.57739,50.82151,24.97407,14.308,52.31611,34.23419,53.56324,65.793,1.57087,39.75093-36.91392,65.58124-71.402,73.34492-19.45755,4.38012-39.505,5.04422-59.36431,5.68928-1.92563.06255-1.93423,3.06283,0,3,36.00629-1.16954,75.82561-2.64782,105.197-26.29829,23.632-19.029,36.52267-50.40191,22.70191-79.14513-12.31048-25.60227-40.07749-40.42555-64.06948-53.12055-14.54692-7.69728-29.40139-14.92739-43.16013-24.00664a225.56568,225.56568,0,0,1-44.021-38.08172c-11.61274-13.01783-35.88536-37.8835-19.6833-55.261,6.24979-6.70322,15.45008-10.45322,23.76709-13.87318,7.71965-3.17432,15.61882-5.90091,23.59339-8.359,32.30332-9.95727,65.99382-15.33778,97.61167-27.52537,29.34816-11.31271,55.85131-29.51317,71.03334-57.75081,15.56667-28.95305,18.69269-64.20827,9.816-95.74038-8.96449-31.84411-29.74193-59.485-55.7581-79.5277a189.29457,189.29457,0,0,0-45.17736-25.44548c-19.18023-7.7138-39.21357-13.2245-58.05462-21.7958-34.30026-15.60411-60.67709-44.06327-72.54124-80.00833a128.35258,128.35258,0,0,1,10.53849-103.388,132.325,132.325,0,0,1,36.08377-41.19917c5.78881-4.29265,11.72024-8.27607,18.63455-10.42828,5.45216-1.69709,11.01494-3.04115,16.55717-4.405,11.87044-2.92109,24.041-5.49578,35.39921-10.11427,5.142-2.09085,14.10575-5.79089,13.92689-12.65751-.11492-4.41222-4.50746-8.48779-7.15123-11.53322-5.94916-6.853-12.73357-12.90532-19.15881-19.29548-14.6191-14.53925-24.45387-30.99684-24.239-52.16688.41213-40.60224,28.75376-71.97656,53.21577-101.31979,22.18989-26.61771,40.23881-54.67354,44.19378-89.82128,3.59574-31.95529-3.56359-64.62508-17.65725-93.33207-14.4263-29.38455-37.52609-58.3937-66.77967-74.059-17.65348-9.45342-36.76384-10.17384-56.36319-9.70056q-33.65494.81267-67.23946,3.3465-32.92715,2.47923-65.69793,6.597c-1.89059.23574-1.9142,3.23869,0,3Z"/><path d="M1846-322.5c-2.15848,24.45341-14.53879,46.751-29.44606,65.756-19.09851,24.34836-43.01914,44.80144-67.93581,62.95989-64.08193,46.70082-137.55293,80.74539-211.74586,107.933-81.35534,29.81219-166.32919,51.69085-252.466,61.77387-91.98083,10.76711-184.7524,2.24865-276.46043-7.55007-105.94116-11.31949-211.44334-26.49531-317.721-34.57947-46.52592-3.53907-94.07706-8.24169-140.73836-4.8507A529.28474,529.28474,0,0,0,439.289-51.51375C409.72369-42.84593,375.5174-31.0657,354.53443-7.20194c-2.727,3.10143-8.13215,8.64683-8.27163,12.91823-.11063,3.388,3.93358,9.2728,5.51788,12.06888a82.06688,82.06688,0,0,0,8.64886,12.35226c13.61341,16.17123,32.63181,26.90686,51.9589,34.80108,50.61613,20.67436,106.80282,24.75133,155.77712,50.00772,20.91484,10.78592,40.46416,25.173,54.8641,43.9593,16.88808,22.03237,21.96243,47.26908,24.21958,74.39924,2.00736,24.12782,3.65921,48.9513,16.55258,70.166,11.34086,18.66018,29.055,32.89084,48.5608,42.32647,49.24065,23.81938,108.88633,17.99427,161.66488,13.61016,29.15506-2.42179,58.17972-6.07854,87.05722-10.75137,30.10607-4.87164,60.28048-10.425,90.86507-10.86586,50.67612-.73051,108.27631,15.51389,132.14986,64.54239,10.53146,21.62819,12.8305,47.14685,2.813,69.37172-.787,1.74612,1.79749,3.27333,2.59041,1.51415,17.84992-39.60193-1.26885-85.648-34.727-110.28306-42.7477-31.475-99.06942-31.09333-149.294-24.26006-29.89552,4.06741-59.52559,9.76773-89.48519,13.4279q-44.71326,5.46263-89.78228,7.22016c-53.06,2.04-113.83375-1.85785-150.99389-45.2059-35.58-41.50474-15.04066-100.80624-42.30037-146.05267-24.48558-40.64186-69.80371-62.104-113.578-75.26057-26.85964-8.07279-54.34425-13.8702-81.17554-22.04358C415.30172,63.79539,392.17,54.77709,373.72309,39.14644A83.51851,83.51851,0,0,1,352.37934,12.5143c-2.62332-5.35737-3.2838-7.29352-.05518-12.0422a61.04552,61.04552,0,0,1,6.965-8.381c11.13515-11.34921,25.50736-19.32643,39.86617-25.84559,35.16655-15.96623,73.91944-24.51644,111.98078-30.07237,40.31567-5.885,79.60607-5.29553,120.22521-3.17217,109.02838,5.69945,217.20624,19.952,325.56777,32.63335,51.09409,5.97947,102.267,11.41143,153.59807,14.90855,44.83124,3.05429,89.70763,5.13523,134.58969,2.05039,84.82915-5.8305,168.8776-24.56225,249.64144-50.74315,77.62711-25.16408,154.08083-57.55225,223.19887-101.2485,27.94743-17.6683,54.95629-37.39144,78.55885-60.63422,18.23846-17.96045,35.07751-38.52545,44.9427-62.37206A102.17818,102.17818,0,0,0,1849-322.5c.16972-1.92272-2.83129-1.91129-3,0Z"/><circle class="cls-1" cx="1813.75" cy="504.75" r="35.75"/><circle class="cls-1" cx="1813.75" cy="504.75" r="35.75"/><circle class="cls-1" cx="1265.42819" cy="339.02394" r="25.07181"/><circle class="cls-1" cx="1647.74601" cy="112.36303" r="18.75399"/><circle class="cls-1" cx="1758.80851" cy="948.29787" r="18.75399"/><circle class="cls-1" cx="1210.21875" cy="74.62301" r="9.37699"/><circle class="cls-2" cx="1524.5379" cy="305.81449" r="33.18551"/></svg>