<?xml version="1.0" encoding="UTF-8"?>
<!DOCTYPE svg PUBLIC "-//W3C//DTD SVG 1.1//EN" "http://www.w3.org/Graphics/SVG/1.1/DTD/svg11.dtd">
<svg xmlns="http://www.w3.org/2000/svg" version="1.1" width="8001px" height="4501px" style="shape-rendering:geometricPrecision; text-rendering:geometricPrecision; image-rendering:optimizeQuality; fill-rule:evenodd; clip-rule:evenodd" xmlns:xlink="http://www.w3.org/1999/xlink">
<g><path style="opacity:0.043" fill="#fefefe" d="M -0.5,-0.5 C 2340.83,-0.5 4682.17,-0.5 7023.5,-0.5C 7002.15,5.00635 6980.81,10.8397 6959.5,17C 6936.35,23.7204 6914.68,33.7204 6894.5,47C 6767.42,137.303 6687.58,258.803 6655,411.5C 6629.58,569.139 6663.25,712.472 6756,841.5C 6819.68,926.775 6900.85,989.608 6999.5,1030C 7045.2,1048.33 7091.53,1065.33 7138.5,1081C 7199.23,1101.94 7258.23,1127.6 7315.5,1158C 7400.59,1203.4 7473.43,1263.9 7534,1339.5C 7598.87,1423.4 7638.87,1518.06 7654,1623.5C 7669.63,1756.31 7639.3,1876.98 7563,1985.5C 7523.57,2037.94 7475.74,2080.77 7419.5,2114C 7359.27,2148.08 7295.93,2174.74 7229.5,2194C 7153.98,2214.88 7077.98,2234.55 7001.5,2253C 6925.13,2271.79 6850.47,2295.79 6777.5,2325C 6752.06,2336.47 6728.72,2351.14 6707.5,2369C 6676.62,2397 6667.12,2431.17 6679,2471.5C 6685.51,2490.53 6694.18,2508.53 6705,2525.5C 6781.18,2638.69 6877.68,2730.19 6994.5,2800C 7016.91,2813.4 7039.58,2826.4 7062.5,2839C 7114.82,2866.83 7166.82,2895.16 7218.5,2924C 7262.56,2949.07 7303.56,2978.4 7341.5,3012C 7374.77,3042.4 7400.27,3078.23 7418,3119.5C 7447.39,3204.85 7434.72,3283.18 7380,3354.5C 7340.44,3402.54 7292.27,3439.37 7235.5,3465C 7194.39,3483.97 7151.39,3497.3 7106.5,3505C 7045.6,3515.24 6984.26,3520.41 6922.5,3520.5C 6922.29,3519.91 6921.96,3519.41 6921.5,3519C 6479.86,3526.19 6038.19,3532.19 5596.5,3537C 5223.5,3540.52 4850.5,3543.86 4477.5,3547C 4199.5,3550.14 3921.5,3550.14 3643.5,3547C 3386.96,3544.24 3130.63,3535.57 2874.5,3521C 2578.77,3503.95 2284.77,3472.12 1992.5,3425.5C 1983.12,3397.98 1979.29,3369.65 1981,3340.5C 1984.08,3304.05 1989.74,3268.05 1998,3232.5C 2000.67,3215.15 2003.34,3197.82 2006,3180.5C 2012.4,3120.96 2003.57,3063.96 1979.5,3009.5C 2006.59,2959.87 2040.59,2915.37 2081.5,2876C 2113.07,2847.71 2149.4,2828.05 2190.5,2817C 2222.06,2809.06 2253.4,2809.72 2284.5,2819C 2284.17,2819.33 2283.83,2819.67 2283.5,2820C 2227.6,2830.3 2174.26,2847.97 2123.5,2873C 2105.62,2882.87 2090.12,2895.71 2077,2911.5C 2056.72,2941.99 2056.39,2972.66 2076,3003.5C 2089.64,3020.16 2107.14,3026.33 2128.5,3022C 2197.68,3004.94 2264.68,2981.94 2329.5,2953C 2375.55,2930.92 2417.22,2902.59 2454.5,2868C 2487.52,2835.48 2512.69,2797.65 2530,2754.5C 2537.02,2735.76 2541.52,2716.43 2543.5,2696.5C 2545.12,2688.65 2542.12,2685.82 2534.5,2688C 2533.67,2688.83 2532.83,2689.67 2532,2690.5C 2531.8,2693.7 2530.97,2696.7 2529.5,2699.5C 2490.26,2720.31 2448.26,2731.14 2403.5,2732C 2394.33,2732.17 2385.17,2732.33 2376,2732.5C 2333.81,2731.31 2291.64,2729.48 2249.5,2727C 2196.17,2722.96 2144.5,2729.96 2094.5,2748C 2054.04,2764.64 2022.2,2791.47 1999,2828.5C 1982.28,2772.23 1951.78,2724.73 1907.5,2686C 1875.03,2658.91 1839.36,2636.58 1800.5,2619C 1721.26,2584.85 1638.59,2562.18 1552.5,2551C 1461.44,2539.43 1370.44,2539.76 1279.5,2552C 1276.18,2555 1272.51,2557.5 1268.5,2559.5C 1267.46,2561.77 1267.29,2564.1 1268,2566.5C 1302.77,2604.26 1334.11,2644.59 1362,2687.5C 1378.58,2713.67 1394.92,2740 1411,2766.5C 1446.65,2830.49 1484.32,2893.16 1524,2954.5C 1545.53,2985.71 1570.37,3014.21 1598.5,3040C 1636.75,3073.62 1681.08,3094.62 1731.5,3103C 1771.59,3108.93 1809.26,3102.26 1844.5,3083C 1868.64,3067.56 1880.31,3045.39 1879.5,3016.5C 1877.1,2990.78 1867.93,2967.78 1852,2947.5C 1833.66,2925.82 1812.83,2906.99 1789.5,2891C 1721.17,2843.33 1652.83,2795.67 1584.5,2748C 1583.3,2747.35 1583.3,2746.85 1584.5,2746.5C 1671.04,2763.28 1751.04,2795.78 1824.5,2844C 1885.13,2886.13 1931.63,2940.29 1964,3006.5C 1964.63,3008.64 1964.3,3010.64 1963,3012.5C 1933.98,3063.19 1905.98,3114.53 1879,3166.5C 1852.51,3216.16 1823.51,3264.16 1792,3310.5C 1771.77,3339.75 1748.6,3366.58 1722.5,3391C 1700.43,3407.8 1675.43,3416.47 1647.5,3417C 1593.5,3416.3 1539.5,3415.46 1485.5,3414.5C 1392.08,3414.98 1298.74,3418.14 1205.5,3424C 1106.83,3430.29 1008.16,3436.62 909.5,3443C 812.593,3449.08 715.593,3452.58 618.5,3453.5C 530.254,3453.44 442.254,3448.94 354.5,3440C 321.921,3435.96 289.421,3431.46 257,3426.5C 249.642,3427.16 247.309,3430.83 250,3437.5C 256.324,3439.65 262.824,3441.15 269.5,3442C 406.14,3460.89 543.474,3468.55 681.5,3465C 742.874,3463.74 804.207,3461.41 865.5,3458C 970.519,3451.64 1075.52,3444.98 1180.5,3438C 1330.03,3427.45 1479.7,3424.62 1629.5,3429.5C 1676.52,3433.11 1716.36,3418.11 1749,3384.5C 1790.59,3336.01 1827.25,3284.01 1859,3228.5C 1891.84,3169.49 1924.17,3110.15 1956,3050.5C 1960.93,3041.63 1966.1,3032.97 1971.5,3024.5C 1988.95,3066.7 1996.78,3110.7 1995,3156.5C 1993.59,3169.49 1992.26,3182.49 1991,3195.5C 1985.34,3226.48 1979.67,3257.48 1974,3288.5C 1968.03,3324.02 1967.03,3359.69 1971,3395.5C 1973.5,3406.65 1976.5,3417.65 1980,3428.5C 1981.39,3432.22 1983.22,3435.72 1985.5,3439C 1988.69,3439.59 1991.86,3439.43 1995,3438.5C 2175.02,3467.52 2355.86,3490.69 2537.5,3508C 2833.25,3534.07 3129.58,3549.74 3426.5,3555C 3521.82,3556.93 3617.16,3558.26 3712.5,3559C 4080.17,3560.03 4447.84,3559.37 4815.5,3557C 5492.7,3551.68 6169.87,3543.51 6847,3532.5C 6859.17,3532.67 6871.33,3532.83 6883.5,3533C 6885.78,3534.94 6888.45,3535.77 6891.5,3535.5C 6960.13,3534.07 7028.47,3528.9 7096.5,3520C 7141.19,3513 7184.52,3501.33 7226.5,3485C 7292.38,3458.33 7346.88,3416.83 7390,3360.5C 7417.41,3322.92 7435.08,3281.25 7443,3235.5C 7448.76,3194.77 7444.76,3155.1 7431,3116.5C 7411.83,3070.33 7383.67,3030.49 7346.5,2997C 7306.8,2962.65 7263.8,2932.98 7217.5,2908C 7165.32,2880.08 7112.99,2852.41 7060.5,2825C 6947.67,2765.21 6849.84,2686.38 6767,2588.5C 6744.3,2563.47 6724.3,2536.47 6707,2507.5C 6697.85,2491.2 6691.52,2473.87 6688,2455.5C 6684.67,2430.83 6690.67,2408.83 6706,2389.5C 6726.49,2368.5 6750.33,2352.33 6777.5,2341C 6850.71,2310.26 6926.05,2285.26 7003.5,2266C 7081.19,2248 7158.19,2228 7234.5,2206C 7299.79,2186.68 7362.12,2160.35 7421.5,2127C 7576.37,2034.53 7659.2,1897.7 7670,1716.5C 7674.88,1604.34 7649.21,1500.01 7593,1403.5C 7527.77,1295.61 7440.27,1210.77 7330.5,1149C 7281.89,1122.68 7231.89,1100.34 7180.5,1082C 7139.32,1067.8 7098.32,1053.47 7057.5,1039C 6992.34,1016.58 6932,984.917 6876.5,944C 6750.3,845.625 6678.46,716.458 6661,556.5C 6651.66,374.403 6714.16,222.236 6848.5,100C 6872.1,80.0625 6897.1,62.0625 6923.5,46C 6943.44,35.5738 6964.44,27.9072 6986.5,23C 7018.26,14.9761 7049.93,7.14281 7081.5,-0.5C 7387.83,-0.5 7694.17,-0.5 8000.5,-0.5C 8000.5,1499.83 8000.5,3000.17 8000.5,4500.5C 5333.5,4500.5 2666.5,4500.5 -0.5,4500.5C -0.5,3395.17 -0.5,2289.83 -0.5,1184.5C 5.35064,1185.33 10.684,1184.16 15.5,1181C 40.3989,1154.78 62.2323,1126.28 81,1095.5C 104.626,1054.81 115.126,1010.81 112.5,963.5C 111.476,933.171 111.309,902.838 112,872.5C 112.748,870.668 113.748,869.001 115,867.5C 138.055,917.158 167.222,962.658 202.5,1004C 197.842,1007.7 197.509,1011.53 201.5,1015.5C 203.986,1061.57 195.153,1105.24 175,1146.5C 167.1,1158.94 157.767,1170.27 147,1180.5C 125.29,1209.25 110.623,1241.25 103,1276.5C 98.789,1316.29 116.622,1335.45 156.5,1334C 181.376,1328.13 198.542,1313.29 208,1289.5C 212.217,1278.08 215.55,1266.41 218,1254.5C 224.17,1218.46 227.503,1182.13 228,1145.5C 228.641,1108.13 228.641,1070.79 228,1033.5C 256.583,1065.92 286.417,1097.25 317.5,1127.5C 317.833,1140.67 318.167,1153.83 318.5,1167C 317.51,1259.17 317.01,1351.33 317,1443.5C 323.43,1462.47 336.597,1470.3 356.5,1467C 371.15,1462.35 381.317,1452.85 387,1438.5C 393.337,1423.16 397.003,1407.16 398,1390.5C 399.616,1359.49 399.616,1328.49 398,1297.5C 395.854,1279.58 391.521,1262.25 385,1245.5C 373.326,1220.48 361.326,1195.48 349,1170.5C 346.246,1164.23 343.913,1157.9 342,1151.5C 412.685,1219.55 490.185,1278.38 574.5,1328C 608.52,1346.92 644.854,1358.59 683.5,1363C 693.574,1363.92 703.574,1363.59 713.5,1362C 725.089,1357.22 728.923,1348.72 725,1336.5C 715.352,1315.83 701.518,1298.33 683.5,1284C 655.746,1263.12 625.08,1248.12 591.5,1239C 548.556,1229.15 505.556,1219.48 462.5,1210C 445.82,1205.51 429.82,1199.51 414.5,1192C 412.101,1191.29 409.768,1191.46 407.5,1192.5C 389.19,1177.19 371.523,1161.19 354.5,1144.5C 354.833,1144.5 355.167,1144.5 355.5,1144.5C 400.557,1170.49 449.224,1184.99 501.5,1188C 560.952,1190.39 620.285,1188.73 679.5,1183C 699.869,1181.28 718.535,1174.94 735.5,1164C 746.49,1155.86 751.323,1145.02 750,1131.5C 745.732,1121.24 738.232,1114.4 727.5,1111C 722.805,1110.13 718.139,1109.13 713.5,1108C 607.49,1103.56 501.49,1098.9 395.5,1094C 362.562,1092.65 330.395,1087.15 299,1077.5C 295.139,1077.69 292.805,1079.69 292,1083.5C 255.767,1046.61 221.767,1007.95 190,967.5C 163.014,931.529 140.681,892.862 123,851.5C 156.6,886.77 191.767,920.27 228.5,952C 262.039,980.094 300.706,996.094 344.5,1000C 373.541,1000.98 402.541,1000.32 431.5,998C 442.722,996.781 449.555,990.615 452,979.5C 452.988,959.643 445.488,943.81 429.5,932C 414.453,921.65 397.787,915.65 379.5,914C 310.366,908.068 245.033,889.402 183.5,858C 154.356,842.094 127.689,822.76 103.5,800C 100.238,797.408 97.7379,794.241 96,790.5C 75.4274,739.117 57.4274,686.784 42,633.5C 53.6814,647.995 66.1814,661.828 79.5,675C 114.841,707.18 153.841,734.18 196.5,756C 215.894,765.096 234.894,764.429 253.5,754C 268.185,741.434 272.352,725.934 266,707.5C 255.093,686.617 237.926,674.117 214.5,670C 156.311,664.726 101.311,648.726 49.5,622C 42.273,611.77 35.4397,601.27 29,590.5C 23.1645,569.999 17.8312,549.332 13,528.5C 9,524.5 5,524.5 1,528.5C 0.833333,529.667 0.666667,530.833 0.5,532C 25.3075,634.083 57.8075,733.25 98,829.5C 98.6667,843.5 98.6667,857.5 98,871.5C 84.8226,895.854 72.156,920.52 60,945.5C 39.7524,988.652 19.5857,1031.65 -0.5,1074.5C -0.5,716.167 -0.5,357.833 -0.5,-0.5 Z"/></g>
<g><path style="opacity:1" fill="#030303" d="M 7023.5,-0.5 C 7042.83,-0.5 7062.17,-0.5 7081.5,-0.5C 7049.93,7.14281 7018.26,14.9761 6986.5,23C 6964.44,27.9072 6943.44,35.5738 6923.5,46C 6897.1,62.0625 6872.1,80.0625 6848.5,100C 6714.16,222.236 6651.66,374.403 6661,556.5C 6678.46,716.458 6750.3,845.625 6876.5,944C 6932,984.917 6992.34,1016.58 7057.5,1039C 7098.32,1053.47 7139.32,1067.8 7180.5,1082C 7231.89,1100.34 7281.89,1122.68 7330.5,1149C 7440.27,1210.77 7527.77,1295.61 7593,1403.5C 7649.21,1500.01 7674.88,1604.34 7670,1716.5C 7659.2,1897.7 7576.37,2034.53 7421.5,2127C 7362.12,2160.35 7299.79,2186.68 7234.5,2206C 7158.19,2228 7081.19,2248 7003.5,2266C 6926.05,2285.26 6850.71,2310.26 6777.5,2341C 6750.33,2352.33 6726.49,2368.5 6706,2389.5C 6690.67,2408.83 6684.67,2430.83 6688,2455.5C 6691.52,2473.87 6697.85,2491.2 6707,2507.5C 6724.3,2536.47 6744.3,2563.47 6767,2588.5C 6849.84,2686.38 6947.67,2765.21 7060.5,2825C 7112.99,2852.41 7165.32,2880.08 7217.5,2908C 7263.8,2932.98 7306.8,2962.65 7346.5,2997C 7383.67,3030.49 7411.83,3070.33 7431,3116.5C 7444.76,3155.1 7448.76,3194.77 7443,3235.5C 7435.08,3281.25 7417.41,3322.92 7390,3360.5C 7346.88,3416.83 7292.38,3458.33 7226.5,3485C 7184.52,3501.33 7141.19,3513 7096.5,3520C 7028.47,3528.9 6960.13,3534.07 6891.5,3535.5C 6888.45,3535.77 6885.78,3534.94 6883.5,3533C 6871.33,3532.83 6859.17,3532.67 6847,3532.5C 6169.87,3543.51 5492.7,3551.68 4815.5,3557C 4447.84,3559.37 4080.17,3560.03 3712.5,3559C 3617.16,3558.26 3521.82,3556.93 3426.5,3555C 3129.58,3549.74 2833.25,3534.07 2537.5,3508C 2355.86,3490.69 2175.02,3467.52 1995,3438.5C 1991.86,3439.43 1988.69,3439.59 1985.5,3439C 1983.22,3435.72 1981.39,3432.22 1980,3428.5C 1976.5,3417.65 1973.5,3406.65 1971,3395.5C 1967.03,3359.69 1968.03,3324.02 1974,3288.5C 1979.67,3257.48 1985.34,3226.48 1991,3195.5C 1992.26,3182.49 1993.59,3169.49 1995,3156.5C 1996.78,3110.7 1988.95,3066.7 1971.5,3024.5C 1966.1,3032.97 1960.93,3041.63 1956,3050.5C 1924.17,3110.15 1891.84,3169.49 1859,3228.5C 1827.25,3284.01 1790.59,3336.01 1749,3384.5C 1716.36,3418.11 1676.52,3433.11 1629.5,3429.5C 1479.7,3424.62 1330.03,3427.45 1180.5,3438C 1075.52,3444.98 970.519,3451.64 865.5,3458C 804.207,3461.41 742.874,3463.74 681.5,3465C 543.474,3468.55 406.14,3460.89 269.5,3442C 262.824,3441.15 256.324,3439.65 250,3437.5C 247.309,3430.83 249.642,3427.16 257,3426.5C 289.421,3431.46 321.921,3435.96 354.5,3440C 442.254,3448.94 530.254,3453.44 618.5,3453.5C 715.593,3452.58 812.593,3449.08 909.5,3443C 1008.16,3436.62 1106.83,3430.29 1205.5,3424C 1298.74,3418.14 1392.08,3414.98 1485.5,3414.5C 1539.5,3415.46 1593.5,3416.3 1647.5,3417C 1675.43,3416.47 1700.43,3407.8 1722.5,3391C 1748.6,3366.58 1771.77,3339.75 1792,3310.5C 1823.51,3264.16 1852.51,3216.16 1879,3166.5C 1905.98,3114.53 1933.98,3063.19 1963,3012.5C 1964.3,3010.64 1964.63,3008.64 1964,3006.5C 1931.63,2940.29 1885.13,2886.13 1824.5,2844C 1751.04,2795.78 1671.04,2763.28 1584.5,2746.5C 1583.3,2746.85 1583.3,2747.35 1584.5,2748C 1652.83,2795.67 1721.17,2843.33 1789.5,2891C 1812.83,2906.99 1833.66,2925.82 1852,2947.5C 1867.93,2967.78 1877.1,2990.78 1879.5,3016.5C 1880.31,3045.39 1868.64,3067.56 1844.5,3083C 1809.26,3102.26 1771.59,3108.93 1731.5,3103C 1681.08,3094.62 1636.75,3073.62 1598.5,3040C 1570.37,3014.21 1545.53,2985.71 1524,2954.5C 1484.32,2893.16 1446.65,2830.49 1411,2766.5C 1394.92,2740 1378.58,2713.67 1362,2687.5C 1334.11,2644.59 1302.77,2604.26 1268,2566.5C 1267.29,2564.1 1267.46,2561.77 1268.5,2559.5C 1272.51,2557.5 1276.18,2555 1279.5,2552C 1370.44,2539.76 1461.44,2539.43 1552.5,2551C 1638.59,2562.18 1721.26,2584.85 1800.5,2619C 1839.36,2636.58 1875.03,2658.91 1907.5,2686C 1951.78,2724.73 1982.28,2772.23 1999,2828.5C 2022.2,2791.47 2054.04,2764.64 2094.5,2748C 2144.5,2729.96 2196.17,2722.96 2249.5,2727C 2291.64,2729.48 2333.81,2731.31 2376,2732.5C 2385.17,2732.33 2394.33,2732.17 2403.5,2732C 2448.26,2731.14 2490.26,2720.31 2529.5,2699.5C 2530.97,2696.7 2531.8,2693.7 2532,2690.5C 2532.83,2689.67 2533.67,2688.83 2534.5,2688C 2542.12,2685.82 2545.12,2688.65 2543.5,2696.5C 2541.52,2716.43 2537.02,2735.76 2530,2754.5C 2512.69,2797.65 2487.52,2835.48 2454.5,2868C 2417.22,2902.59 2375.55,2930.92 2329.5,2953C 2264.68,2981.94 2197.68,3004.94 2128.5,3022C 2107.14,3026.33 2089.64,3020.16 2076,3003.5C 2056.39,2972.66 2056.72,2941.99 2077,2911.5C 2090.12,2895.71 2105.62,2882.87 2123.5,2873C 2174.26,2847.97 2227.6,2830.3 2283.5,2820C 2283.83,2819.67 2284.17,2819.33 2284.5,2819C 2253.4,2809.72 2222.06,2809.06 2190.5,2817C 2149.4,2828.05 2113.07,2847.71 2081.5,2876C 2040.59,2915.37 2006.59,2959.87 1979.5,3009.5C 2003.57,3063.96 2012.4,3120.96 2006,3180.5C 2003.34,3197.82 2000.67,3215.15 1998,3232.5C 1989.74,3268.05 1984.08,3304.05 1981,3340.5C 1979.29,3369.65 1983.12,3397.98 1992.5,3425.5C 2284.77,3472.12 2578.77,3503.95 2874.5,3521C 3130.63,3535.57 3386.96,3544.24 3643.5,3547C 3921.5,3550.14 4199.5,3550.14 4477.5,3547C 4850.5,3543.86 5223.5,3540.52 5596.5,3537C 6038.19,3532.19 6479.86,3526.19 6921.5,3519C 6921.96,3519.41 6922.29,3519.91 6922.5,3520.5C 6984.26,3520.41 7045.6,3515.24 7106.5,3505C 7151.39,3497.3 7194.39,3483.97 7235.5,3465C 7292.27,3439.37 7340.44,3402.54 7380,3354.5C 7434.72,3283.18 7447.39,3204.85 7418,3119.5C 7400.27,3078.23 7374.77,3042.4 7341.5,3012C 7303.56,2978.4 7262.56,2949.07 7218.5,2924C 7166.82,2895.16 7114.82,2866.83 7062.5,2839C 7039.58,2826.4 7016.91,2813.4 6994.5,2800C 6877.68,2730.19 6781.18,2638.69 6705,2525.5C 6694.18,2508.53 6685.51,2490.53 6679,2471.5C 6667.12,2431.17 6676.62,2397 6707.5,2369C 6728.72,2351.14 6752.06,2336.47 6777.5,2325C 6850.47,2295.79 6925.13,2271.79 7001.5,2253C 7077.98,2234.55 7153.98,2214.88 7229.5,2194C 7295.93,2174.74 7359.27,2148.08 7419.5,2114C 7475.74,2080.77 7523.57,2037.94 7563,1985.5C 7639.3,1876.98 7669.63,1756.31 7654,1623.5C 7638.87,1518.06 7598.87,1423.4 7534,1339.5C 7473.43,1263.9 7400.59,1203.4 7315.5,1158C 7258.23,1127.6 7199.23,1101.94 7138.5,1081C 7091.53,1065.33 7045.2,1048.33 6999.5,1030C 6900.85,989.608 6819.68,926.775 6756,841.5C 6663.25,712.472 6629.58,569.139 6655,411.5C 6687.58,258.803 6767.42,137.303 6894.5,47C 6914.68,33.7204 6936.35,23.7204 6959.5,17C 6980.81,10.8397 7002.15,5.00635 7023.5,-0.5 Z"/></g>
<g><path style="opacity:1" fill="#040404" d="M 4.5,299.5 C 6.5273,299.338 8.5273,299.505 10.5,300C 21.1003,314.263 35.1003,323.263 52.5,327C 63.4596,328.578 74.4596,329.745 85.5,330.5C 126.138,327.896 166.804,326.396 207.5,326C 227.965,332.429 235.131,345.929 229,366.5C 223.313,378.518 214.146,386.684 201.5,391C 178.397,398.225 154.731,400.559 130.5,398C 115.368,396.426 100.868,392.592 87,386.5C 86.8333,386.833 86.6667,387.167 86.5,387.5C 91.3035,390.471 95.9702,393.638 100.5,397C 103.623,397.206 106.623,397.873 109.5,399C 114.543,403.712 119.877,408.045 125.5,412C 142.621,420.644 159.787,429.144 177,437.5C 177.275,429.902 181.275,426.569 189,427.5C 199.677,430.242 210.511,431.076 221.5,430C 243.102,426.7 263.436,419.7 282.5,409C 294.004,402.08 305.671,395.414 317.5,389C 333.069,382.248 349.402,378.915 366.5,379C 393.507,378.389 420.507,377.555 447.5,376.5C 457.696,375.754 467.363,377.587 476.5,382C 487.287,393.55 486.954,404.883 475.5,416C 468.59,420.65 460.924,423.316 452.5,424C 406.052,428.344 360.719,437.678 316.5,452C 290.435,459.73 263.768,463.063 236.5,462C 246.647,465.366 256.647,469.033 266.5,473C 270.887,472.652 274.553,473.986 277.5,477C 304.684,487.45 332.351,496.617 360.5,504.5C 360.351,503.448 360.517,502.448 361,501.5C 362.918,500.458 364.751,499.292 366.5,498C 378.009,496.246 388.676,492.246 398.5,486C 419.791,469.021 441.791,453.021 464.5,438C 512.953,409.238 565.287,392.405 621.5,387.5C 647.651,388.112 659.151,401.446 656,427.5C 649.92,442.581 639.42,453.414 624.5,460C 612.004,465.041 599.004,468.374 585.5,470C 563.86,471.565 542.193,472.565 520.5,473C 507.038,473.723 493.705,475.39 480.5,478C 445.06,487.258 410.06,497.925 375.5,510C 406.233,519.551 437.4,527.717 469,534.5C 474.281,532.415 478.781,533.415 482.5,537.5C 483.971,533.689 486.638,531.356 490.5,530.5C 494.312,531.048 498.145,531.381 502,531.5C 548.974,527.968 595.974,524.968 643,522.5C 673.339,522.51 702.839,527.343 731.5,537C 744.462,541.822 757.462,546.489 770.5,551C 777.509,553.781 784.342,556.948 791,560.5C 793.904,566.355 792.237,570.021 786,571.5C 783.876,570.937 781.709,570.604 779.5,570.5C 692.22,578.602 605.553,574.602 519.5,558.5C 518.479,559.002 518.312,559.668 519,560.5C 545.017,589.201 562.017,622.534 570,660.5C 573.771,684.813 570.104,707.813 559,729.5C 548.076,742.98 536.409,743.646 524,731.5C 516.719,718.515 513.052,704.515 513,689.5C 511.439,661.653 508.439,633.986 504,606.5C 499.4,585.324 490.234,566.491 476.5,550C 446.302,542.962 416.302,535.296 386.5,527C 354.104,516.645 321.77,506.311 289.5,496C 333.742,553.03 351.908,617.53 344,689.5C 337.268,701.971 327.102,705.805 313.5,701C 296.944,692.777 284.777,680.277 277,663.5C 267.963,639.975 264.963,615.641 268,590.5C 270.701,569.557 272.867,548.557 274.5,527.5C 273.58,517.806 272.413,508.14 271,498.5C 270.294,494.037 268.628,490.037 266,486.5C 226.117,472.554 186.951,456.554 148.5,438.5C 155.86,450.532 163.027,463.199 170,476.5C 189.882,518.887 195.549,563.22 187,609.5C 180.513,622.113 170.346,626.613 156.5,623C 146.745,618.246 139.245,611.079 134,601.5C 125.402,585.187 120.069,567.853 118,549.5C 116.5,521.507 115.167,493.507 114,465.5C 112.521,450.73 109.187,436.397 104,422.5C 102.129,417.919 99.6288,413.752 96.5,410C 60.8933,388.729 31.3933,360.896 8,326.5C 7.10477,323.534 7.60477,320.867 9.5,318.5C 5.74646,314.65 2.74646,310.316 0.5,305.5C 0.866211,302.744 2.19954,300.744 4.5,299.5 Z"/></g>
<g><path style="opacity:1" fill="#fbfbfb" d="M 27.5,332.5 C 27.56,331.957 27.8933,331.624 28.5,331.5C 40.8632,337.341 53.8632,340.841 67.5,342C 80.8333,342.667 94.1667,342.667 107.5,342C 139.151,339.967 170.818,338.634 202.5,338C 218.473,342.583 222.306,352.083 214,366.5C 209.452,372.519 203.619,376.685 196.5,379C 152.264,391.673 109.93,387.007 69.5,365C 59.9459,359.445 50.9459,353.111 42.5,346C 40.913,345.138 39.2464,344.471 37.5,344C 34.3016,339.974 30.9683,336.141 27.5,332.5 Z"/></g>
<g><path style="opacity:1" fill="#fbfbfb" d="M 215.5,444.5 C 217.5,443.833 219.5,443.167 221.5,442.5C 245.08,440.028 267.08,432.862 287.5,421C 300.338,413.413 313.338,406.08 326.5,399C 343.421,393.84 360.754,391.173 378.5,391C 406.83,390.016 435.163,389.682 463.5,390C 467.943,391.053 470.943,393.72 472.5,398C 468.226,405.928 461.56,410.262 452.5,411C 405.305,414.705 359.305,424.039 314.5,439C 290.06,446.539 265.06,449.872 239.5,449C 231.397,447.82 223.397,446.32 215.5,444.5 Z"/></g>
<g><path style="opacity:1" fill="#fcfcfc" d="M 616.5,399.5 C 642.608,399.73 649.775,411.397 638,434.5C 627.636,444.267 615.47,450.767 601.5,454C 596.094,454.615 590.761,455.615 585.5,457C 556.191,458.977 526.858,460.644 497.5,462C 489.877,463.578 482.21,464.911 474.5,466C 459.652,469.762 444.985,473.762 430.5,478C 485.124,434.526 547.124,408.359 616.5,399.5 Z"/></g>
<g><path style="opacity:1" fill="#fbfbfb" d="M 119.5,426.5 C 167.379,477.317 185.545,537.317 174,606.5C 165.659,612.362 157.992,611.362 151,603.5C 141.491,589.144 135.158,573.478 132,556.5C 131.132,546.487 130.132,536.487 129,526.5C 128.712,500.776 127.378,475.11 125,449.5C 123.378,441.753 121.544,434.086 119.5,426.5 Z"/></g>
<g><path style="opacity:1" fill="#7f807f" d="M 221.5,442.5 C 219.5,443.167 217.5,443.833 215.5,444.5C 214.244,444.539 213.244,444.039 212.5,443C 215.482,442.502 218.482,442.335 221.5,442.5 Z"/></g>
<g><path style="opacity:1" fill="#fcfcfc" d="M 285.5,513.5 C 294.896,525.934 303.062,539.268 310,553.5C 327.73,592.821 335.73,634.154 334,677.5C 331.129,690.219 323.962,693.052 312.5,686C 297.016,674.513 287.183,659.346 283,640.5C 279.098,612.828 279.764,585.162 285,557.5C 286.308,542.825 286.475,528.158 285.5,513.5 Z"/></g>
<g><path style="opacity:1" fill="#040404" d="M 355.5,1144.5 C 354.086,1142.95 352.419,1141.61 350.5,1140.5C 350.167,1140.67 349.833,1140.83 349.5,1141C 350.789,1142.8 352.456,1143.97 354.5,1144.5C 371.523,1161.19 389.19,1177.19 407.5,1192.5C 409.768,1191.46 412.101,1191.29 414.5,1192C 429.82,1199.51 445.82,1205.51 462.5,1210C 505.556,1219.48 548.556,1229.15 591.5,1239C 625.08,1248.12 655.746,1263.12 683.5,1284C 701.518,1298.33 715.352,1315.83 725,1336.5C 728.923,1348.72 725.089,1357.22 713.5,1362C 703.574,1363.59 693.574,1363.92 683.5,1363C 644.854,1358.59 608.52,1346.92 574.5,1328C 490.185,1278.38 412.685,1219.55 342,1151.5C 343.913,1157.9 346.246,1164.23 349,1170.5C 361.326,1195.48 373.326,1220.48 385,1245.5C 391.521,1262.25 395.854,1279.58 398,1297.5C 399.616,1328.49 399.616,1359.49 398,1390.5C 397.003,1407.16 393.337,1423.16 387,1438.5C 381.317,1452.85 371.15,1462.35 356.5,1467C 336.597,1470.3 323.43,1462.47 317,1443.5C 317.01,1351.33 317.51,1259.17 318.5,1167C 318.167,1153.83 317.833,1140.67 317.5,1127.5C 286.417,1097.25 256.583,1065.92 228,1033.5C 228.641,1070.79 228.641,1108.13 228,1145.5C 227.503,1182.13 224.17,1218.46 218,1254.5C 215.55,1266.41 212.217,1278.08 208,1289.5C 198.542,1313.29 181.376,1328.13 156.5,1334C 116.622,1335.45 98.789,1316.29 103,1276.5C 110.623,1241.25 125.29,1209.25 147,1180.5C 157.767,1170.27 167.1,1158.94 175,1146.5C 195.153,1105.24 203.986,1061.57 201.5,1015.5C 197.509,1011.53 197.842,1007.7 202.5,1004C 167.222,962.658 138.055,917.158 115,867.5C 113.748,869.001 112.748,870.668 112,872.5C 111.309,902.838 111.476,933.171 112.5,963.5C 115.126,1010.81 104.626,1054.81 81,1095.5C 62.2323,1126.28 40.3989,1154.78 15.5,1181C 10.684,1184.16 5.35064,1185.33 -0.5,1184.5C -0.5,1179.5 -0.5,1174.5 -0.5,1169.5C 2.30253,1171.95 5.30253,1172.12 8.5,1170C 28.8611,1146.98 47.6944,1122.81 65,1097.5C 86.3539,1065.44 97.6873,1030.1 99,991.5C 99.4999,975.17 99.6666,958.837 99.5,942.5C 99.6666,927.496 99.4999,912.496 99,897.5C 98.2828,898.044 97.7828,898.711 97.5,899.5C 61.9194,968.95 29.2527,1039.62 -0.5,1111.5C -0.5,1099.17 -0.5,1086.83 -0.5,1074.5C 19.5857,1031.65 39.7524,988.652 60,945.5C 72.156,920.52 84.8226,895.854 98,871.5C 98.6667,857.5 98.6667,843.5 98,829.5C 57.8075,733.25 25.3075,634.083 0.5,532C 0.666667,530.833 0.833333,529.667 1,528.5C 5,524.5 9,524.5 13,528.5C 17.8312,549.332 23.1645,569.999 29,590.5C 35.4397,601.27 42.273,611.77 49.5,622C 101.311,648.726 156.311,664.726 214.5,670C 237.926,674.117 255.093,686.617 266,707.5C 272.352,725.934 268.185,741.434 253.5,754C 234.894,764.429 215.894,765.096 196.5,756C 153.841,734.18 114.841,707.18 79.5,675C 66.1814,661.828 53.6814,647.995 42,633.5C 57.4274,686.784 75.4274,739.117 96,790.5C 97.7379,794.241 100.238,797.408 103.5,800C 127.689,822.76 154.356,842.094 183.5,858C 245.033,889.402 310.366,908.068 379.5,914C 397.787,915.65 414.453,921.65 429.5,932C 445.488,943.81 452.988,959.643 452,979.5C 449.555,990.615 442.722,996.781 431.5,998C 402.541,1000.32 373.541,1000.98 344.5,1000C 300.706,996.094 262.039,980.094 228.5,952C 191.767,920.27 156.6,886.77 123,851.5C 140.681,892.862 163.014,931.529 190,967.5C 221.767,1007.95 255.767,1046.61 292,1083.5C 292.805,1079.69 295.139,1077.69 299,1077.5C 330.395,1087.15 362.562,1092.65 395.5,1094C 501.49,1098.9 607.49,1103.56 713.5,1108C 718.139,1109.13 722.805,1110.13 727.5,1111C 738.232,1114.4 745.732,1121.24 750,1131.5C 751.323,1145.02 746.49,1155.86 735.5,1164C 718.535,1174.94 699.869,1181.28 679.5,1183C 620.285,1188.73 560.952,1190.39 501.5,1188C 449.224,1184.99 400.557,1170.49 355.5,1144.5 Z"/></g>
<g><path style="opacity:1" fill="#f8f8f8" d="M 626.5,535.5 C 658.173,534.334 689.173,538.168 719.5,547C 731.114,551.205 742.781,555.205 754.5,559C 734.114,561.127 713.614,562.293 693,562.5C 632.597,561.373 572.764,555.206 513.5,544C 551.297,541.004 588.963,538.17 626.5,535.5 Z"/></g>
<g><path style="opacity:1" fill="#8e8e8e" d="M 499.5,558.5 C 497.554,557.746 496.721,556.412 497,554.5C 498.481,555.471 499.315,556.804 499.5,558.5 Z"/></g>
<g><path style="opacity:1" fill="#fbfbfb" d="M 499.5,558.5 C 525.173,584.71 543.673,615.376 555,650.5C 560.961,674.06 559.295,697.06 550,719.5C 547.779,723.893 544.279,726.559 539.5,727.5C 537.272,726.781 535.439,725.448 534,723.5C 530.802,717.905 528.802,711.905 528,705.5C 525.436,682.884 523.436,660.217 522,637.5C 519.605,609.57 512.105,583.236 499.5,558.5 Z"/></g>
<g><path style="opacity:1" fill="#fdfdfd" d="M 71.5,648.5 C 71.56,647.957 71.8933,647.624 72.5,647.5C 117.202,666.842 163.869,678.676 212.5,683C 227.794,685.984 240.294,693.484 250,705.5C 256.013,715.02 257.013,725.02 253,735.5C 244.078,747.257 232.244,751.757 217.5,749C 211.978,747.937 206.644,746.27 201.5,744C 153.231,718.9 109.898,687.066 71.5,648.5 Z"/></g>
<g><path style="opacity:1" fill="#fdfdfd" d="M 132.5,841.5 C 194.675,884.084 263.342,910.917 338.5,922C 359.741,923.78 380.741,927.114 401.5,932C 414.904,936.285 425.737,944.118 434,955.5C 438.95,963.319 440.283,971.653 438,980.5C 435.612,983.634 432.446,985.467 428.5,986C 395.112,989.43 361.778,989.096 328.5,985C 300.615,979.596 274.949,968.929 251.5,953C 228.615,935.121 206.615,916.121 185.5,896C 167.219,878.222 149.552,860.055 132.5,841.5 Z"/></g>
<g><path style="opacity:1" fill="#040404" d="M 517.5,850.5 C 544.249,848.454 562.749,859.788 573,884.5C 579.395,912.195 570.228,932.695 545.5,946C 521.725,954.517 501.559,949.35 485,930.5C 472.163,909.582 472.497,888.916 486,868.5C 494.482,858.684 504.982,852.684 517.5,850.5 Z"/></g>
<g><path style="opacity:1" fill="#fdfdfd" d="M 522.5,862.5 C 538.78,862.389 550.946,869.389 559,883.5C 567.169,906.377 560.669,923.544 539.5,935C 515.255,941.926 498.421,933.759 489,910.5C 484.827,888.011 493.327,872.511 514.5,864C 517.365,863.817 520.031,863.317 522.5,862.5 Z"/></g>
<g><path style="opacity:1" fill="#7d7d7d" d="M 99.5,942.5 C 98.8333,928.167 98.1667,913.833 97.5,899.5C 97.7828,898.711 98.2828,898.044 99,897.5C 99.4999,912.496 99.6666,927.496 99.5,942.5 Z"/></g>
<g><path style="opacity:1" fill="#fdfdfd" d="M 97.5,899.5 C 98.1667,913.833 98.8333,928.167 99.5,942.5C 99.6666,958.837 99.4999,975.17 99,991.5C 97.6873,1030.1 86.3539,1065.44 65,1097.5C 47.6944,1122.81 28.8611,1146.98 8.5,1170C 5.30253,1172.12 2.30253,1171.95 -0.5,1169.5C -0.5,1150.17 -0.5,1130.83 -0.5,1111.5C 29.2527,1039.62 61.9194,968.95 97.5,899.5 Z"/></g>
<g><path style="opacity:1" fill="#7f807f" d="M 216.5,1048.5 C 215.833,1047.83 215.167,1047.17 214.5,1046.5C 214.201,1044.4 214.534,1042.4 215.5,1040.5C 216.48,1043.09 216.813,1045.75 216.5,1048.5 Z"/></g>
<g><path style="opacity:1" fill="#fcfcfc" d="M 214.5,1046.5 C 215.167,1047.17 215.833,1047.83 216.5,1048.5C 217.803,1108.68 215.303,1168.68 209,1228.5C 206.614,1248.44 201.947,1267.78 195,1286.5C 187.662,1302.51 175.829,1313.67 159.5,1320C 143.861,1324.3 130.694,1320.47 120,1308.5C 113.405,1295.53 112.739,1282.2 118,1268.5C 125.416,1240.88 137.416,1215.55 154,1192.5C 162.704,1183.46 171.038,1174.13 179,1164.5C 194.457,1141.49 204.457,1116.16 209,1088.5C 211.478,1074.59 213.312,1060.59 214.5,1046.5 Z"/></g>
<g><path style="opacity:1" fill="#e5e5e5" d="M 300.5,1092.5 C 303.644,1091.87 306.644,1092.71 309.5,1095C 308.929,1096.21 308.262,1097.37 307.5,1098.5C 305.147,1096.48 302.814,1094.48 300.5,1092.5 Z"/></g>
<g><path style="opacity:1" fill="#fcfcfc" d="M 321.5,1097.5 C 346.23,1102.43 371.23,1105.6 396.5,1107C 499.165,1111.36 601.831,1115.7 704.5,1120C 713.109,1120.9 721.442,1122.9 729.5,1126C 738.389,1131.53 739.889,1138.7 734,1147.5C 725.969,1156.27 716.135,1162.1 704.5,1165C 685.75,1169.2 666.75,1171.86 647.5,1173C 589.443,1177.91 531.443,1177.58 473.5,1172C 436.158,1167.11 401.158,1155.44 368.5,1137C 356.969,1129.73 345.969,1121.73 335.5,1113C 330.234,1108.24 325.567,1103.07 321.5,1097.5 Z"/></g>
<g><path style="opacity:1" fill="#717171" d="M 355.5,1144.5 C 355.167,1144.5 354.833,1144.5 354.5,1144.5C 352.456,1143.97 350.789,1142.8 349.5,1141C 349.833,1140.83 350.167,1140.67 350.5,1140.5C 352.419,1141.61 354.086,1142.95 355.5,1144.5 Z"/></g>
<g><path style="opacity:1" fill="#7f807f" d="M 332.5,1163.5 C 331.833,1177.83 331.167,1192.17 330.5,1206.5C 330.333,1191.5 330.5,1176.5 331,1161.5C 331.717,1162.04 332.217,1162.71 332.5,1163.5 Z"/></g>
<g><path style="opacity:1" fill="#fcfcfc" d="M 332.5,1163.5 C 343.42,1188.01 354.92,1212.35 367,1236.5C 377.981,1259.85 384.315,1284.52 386,1310.5C 387.619,1344.64 386.286,1378.64 382,1412.5C 379.576,1427.18 373.076,1439.68 362.5,1450C 352.787,1456.12 343.287,1455.95 334,1449.5C 329.945,1441.73 328.112,1433.4 328.5,1424.5C 329.531,1351.84 330.198,1279.17 330.5,1206.5C 331.167,1192.17 331.833,1177.83 332.5,1163.5 Z"/></g>
<g><path style="opacity:1" fill="#fdfdfd" d="M 433.5,1215.5 C 433.917,1214.88 434.584,1214.54 435.5,1214.5C 446.71,1218.29 458.043,1221.79 469.5,1225C 507.143,1233.33 544.809,1241.66 582.5,1250C 617.947,1258.72 649.947,1274.39 678.5,1297C 693.059,1309.55 704.559,1324.38 713,1341.5C 713.618,1346.9 711.118,1350.07 705.5,1351C 694.092,1351.74 682.758,1351.07 671.5,1349C 635.851,1341.68 602.184,1329.01 570.5,1311C 522.679,1282.1 477.013,1250.27 433.5,1215.5 Z"/></g>
<g><path style="opacity:1" fill="#060606" d="M 473.5,1350.5 C 502.719,1347.68 521.219,1360.35 529,1388.5C 530.839,1416.32 518.339,1433.82 491.5,1441C 463.207,1443.37 445.374,1430.87 438,1403.5C 436.409,1376.65 448.242,1358.98 473.5,1350.5 Z"/></g>
<g><path style="opacity:1" fill="#fcfcfc" d="M 477.5,1362.5 C 506.94,1363.44 519.44,1378.44 515,1407.5C 506.698,1425.39 492.865,1432.22 473.5,1428C 451.401,1417.54 445.235,1401.04 455,1378.5C 460.761,1370.55 468.261,1365.22 477.5,1362.5 Z"/></g>
<g><path style="opacity:1" fill="#050505" d="M 892.5,1500.5 C 917.246,1498.45 934.413,1508.78 944,1531.5C 949.67,1553.96 943.17,1571.79 924.5,1585C 894.773,1598.65 872.273,1591.15 857,1562.5C 849.752,1530.64 861.586,1509.97 892.5,1500.5 Z"/></g>
<g><path style="opacity:1" fill="#fdfdfd" d="M 897.5,1512.5 C 919.346,1513.18 931.346,1524.35 933.5,1546C 931.701,1566.47 920.534,1577.63 900,1579.5C 875.21,1575.71 864.544,1561.37 868,1536.5C 873.293,1522.69 883.126,1514.69 897.5,1512.5 Z"/></g>
<g><path style="opacity:1" fill="#030303" d="M 548.5,1671.5 C 568.51,1669.25 583.343,1676.92 593,1694.5C 600.119,1718.74 592.619,1736.57 570.5,1748C 546.904,1753.82 529.737,1745.98 519,1724.5C 514.096,1707.78 517.596,1693.28 529.5,1681C 535.378,1676.73 541.712,1673.56 548.5,1671.5 Z"/></g>
<g><path style="opacity:1" fill="#fcfcfc" d="M 550.5,1683.5 C 566.809,1682.07 577.642,1689.07 583,1704.5C 584.031,1727.8 572.864,1738.63 549.5,1737C 531.621,1729.74 525.787,1716.9 532,1698.5C 536.423,1691.22 542.59,1686.22 550.5,1683.5 Z"/></g>
<g><path style="opacity:1" fill="#fefefe" d="M 1375.5,2555.5 C 1514.52,2550.06 1648.52,2572.56 1777.5,2623C 1823.92,2641.83 1865.92,2667.49 1903.5,2700C 1938.67,2731.52 1964.5,2769.35 1981,2813.5C 1985.09,2824.51 1987.92,2835.84 1989.5,2847.5C 1986.82,2856.38 1984.99,2865.38 1984,2874.5C 1986.16,2878.12 1989.33,2879.29 1993.5,2878C 1995.76,2876.07 1996.76,2873.57 1996.5,2870.5C 2002.6,2871.4 2005.6,2868.74 2005.5,2862.5C 2004.18,2858.23 2003.68,2853.9 2004,2849.5C 2009.28,2835.9 2016.61,2823.57 2026,2812.5C 2054.11,2781.86 2088.28,2761.02 2128.5,2750C 2160.58,2742.71 2193.08,2738.88 2226,2738.5C 2276.68,2740.72 2327.34,2743.05 2378,2745.5C 2422.2,2746.49 2465.04,2739.66 2506.5,2725C 2513.41,2721.96 2520.24,2718.8 2527,2715.5C 2519.16,2751.51 2504.5,2784.51 2483,2814.5C 2447.41,2861.76 2403.58,2899.26 2351.5,2927C 2305.78,2950.26 2258.45,2969.6 2209.5,2985C 2187.36,2991.27 2165.36,2997.94 2143.5,3005C 2107.25,3018.63 2084.41,3006.79 2075,2969.5C 2072.86,2943.27 2081.69,2921.43 2101.5,2904C 2118.89,2889.63 2138.23,2878.29 2159.5,2870C 2201.61,2852.3 2245.27,2839.64 2290.5,2832C 2294.99,2829.53 2295.66,2826.2 2292.5,2822C 2294.96,2822.25 2297.46,2822.75 2300,2823.5C 2303.56,2822.91 2305.39,2820.74 2305.5,2817C 2305.07,2814.68 2304.07,2812.68 2302.5,2811C 2271.09,2799.69 2238.76,2796.36 2205.5,2801C 2160.56,2809.31 2120.23,2827.64 2084.5,2856C 2058.14,2878.02 2034.98,2902.85 2015,2930.5C 2000.21,2951.29 1986.21,2972.63 1973,2994.5C 1936.59,2923.08 1884.42,2865.91 1816.5,2823C 1741.01,2776.2 1659.34,2745.87 1571.5,2732C 1569.23,2736.15 1566.56,2736.49 1563.5,2733C 1558.29,2731.77 1555.29,2733.77 1554.5,2739C 1554.7,2741.41 1555.7,2743.41 1557.5,2745C 1639.44,2801.94 1721.11,2859.28 1802.5,2917C 1818,2929.83 1832.17,2944 1845,2959.5C 1860.69,2980.22 1867.69,3003.56 1866,3029.5C 1861.96,3053.07 1848.79,3069.24 1826.5,3078C 1786.58,3093.75 1745.91,3095.75 1704.5,3084C 1665.98,3072.41 1631.98,3053.08 1602.5,3026C 1577.38,3001.9 1554.88,2975.73 1535,2947.5C 1495.32,2886.16 1457.65,2823.49 1422,2759.5C 1394.32,2712.8 1364.66,2667.47 1333,2623.5C 1317.59,2603.42 1301.42,2583.92 1284.5,2565C 1314.84,2560.49 1345.17,2557.32 1375.5,2555.5 Z"/></g>
</svg>
