<?xml version="1.0" encoding="UTF-8"?>
<!DOCTYPE svg PUBLIC "-//W3C//DTD SVG 1.1//EN" "http://www.w3.org/Graphics/SVG/1.1/DTD/svg11.dtd">
<svg xmlns="http://www.w3.org/2000/svg" version="1.1" width="8001px" height="4501px" style="shape-rendering:geometricPrecision; text-rendering:geometricPrecision; image-rendering:optimizeQuality; fill-rule:evenodd; clip-rule:evenodd" xmlns:xlink="http://www.w3.org/1999/xlink">
<g><path style="opacity:0.032" fill="#fefefe" d="M -0.5,-0.5 C 2666.5,-0.5 5333.5,-0.5 8000.5,-0.5C 8000.5,1499.83 8000.5,3000.17 8000.5,4500.5C 5823.83,4500.5 3647.17,4500.5 1470.5,4500.5C 1474.7,4493.45 1479.54,4486.78 1485,4480.5C 1514.74,4448.08 1548.57,4420.91 1586.5,4399C 1660.72,4357.93 1738.38,4325.27 1819.5,4301C 2044.54,4235.11 2274.54,4206.77 2509.5,4216C 2618.3,4219.73 2726.96,4225.73 2835.5,4234C 3038.82,4250.3 3241.82,4269.97 3444.5,4293C 3685.75,4321.98 3927.08,4350.32 4168.5,4378C 4308.98,4392.86 4449.65,4405.86 4590.5,4417C 4696.72,4424.59 4803.05,4429.92 4909.5,4433C 5028.39,4436.03 5147.05,4432.37 5265.5,4422C 5503.13,4398.88 5737.13,4356.22 5967.5,4294C 6174,4238.61 6375.67,4171.28 6572.5,4092C 6768.57,4013.13 6956.91,3918.46 7137.5,3808C 7213.12,3761.03 7286.12,3710.37 7356.5,3656C 7425.65,3601.53 7489.82,3541.36 7549,3475.5C 7599.52,3418.5 7640.52,3355.17 7672,3285.5C 7706.02,3201.63 7715.69,3114.97 7701,3025.5C 7686.21,2963.26 7659.55,2906.59 7621,2855.5C 7576.12,2797.85 7523.95,2748.02 7464.5,2706C 7384.75,2649.95 7299.75,2602.95 7209.5,2565C 6982.85,2470.48 6746.19,2419.15 6499.5,2411C 6417.33,2408.38 6336,2415.04 6255.5,2431C 6209.64,2440.27 6166.3,2456.27 6125.5,2479C 6088.17,2500.32 6060.67,2530.49 6043,2569.5C 6036.44,2586.87 6033.11,2604.87 6033,2623.5C 6026.26,2645.8 6011.43,2659.3 5988.5,2664C 5976.9,2665.7 5965.23,2666.7 5953.5,2667C 5886.83,2667.67 5820.17,2667.67 5753.5,2667C 5741.02,2666.32 5728.69,2664.66 5716.5,2662C 5698.58,2656.05 5687.08,2643.88 5682,2625.5C 5677.82,2607.05 5675.65,2588.39 5675.5,2569.5C 5675.5,2488.5 5675.5,2407.5 5675.5,2326.5C 5756.17,2326.5 5836.83,2326.5 5917.5,2326.5C 5927.58,2326.14 5937.24,2327.97 5946.5,2332C 5952.32,2336.81 5955.66,2342.98 5956.5,2350.5C 5959.17,2350.5 5961.83,2350.5 5964.5,2350.5C 5964.5,2327.17 5964.5,2303.83 5964.5,2280.5C 5962.14,2280.34 5959.81,2280.5 5957.5,2281C 5956.13,2290.42 5951.13,2297.09 5942.5,2301C 5932.04,2303.9 5921.37,2305.07 5910.5,2304.5C 5832.17,2304.5 5753.83,2304.5 5675.5,2304.5C 5675.5,2192.83 5675.5,2081.17 5675.5,1969.5C 5760.17,1969.5 5844.83,1969.5 5929.5,1969.5C 5943.81,1968.79 5957.48,1971.29 5970.5,1977C 5975.71,1981.93 5979.55,1987.76 5982,1994.5C 5988.71,2011.05 5994.05,2028.05 5998,2045.5C 6000.72,2046.44 6003.55,2046.78 6006.5,2046.5C 6006.5,2012.17 6006.5,1977.83 6006.5,1943.5C 5849.5,1943.5 5692.5,1943.5 5535.5,1943.5C 5535.5,1946.5 5535.5,1949.5 5535.5,1952.5C 5548.88,1951.45 5561.55,1953.95 5573.5,1960C 5576.37,1962.54 5578.87,1965.37 5581,1968.5C 5585.41,1981.43 5587.74,1994.76 5588,2008.5C 5588.17,2114.33 5588.33,2220.17 5588.5,2326C 5588.66,2434.52 5588.16,2543.02 5587,2651.5C 5584.42,2670.41 5573.59,2680.91 5554.5,2683C 5548.19,2683.9 5541.86,2684.4 5535.5,2684.5C 5535.5,2687.17 5535.5,2689.83 5535.5,2692.5C 5706.17,2692.5 5876.83,2692.5 6047.5,2692.5C 6047.33,2662.16 6047.5,2631.83 6048,2601.5C 6054.36,2567.94 6070.19,2539.78 6095.5,2517C 6124.6,2492.45 6157.27,2474.11 6193.5,2462C 6247.85,2444.4 6303.52,2433.06 6360.5,2428C 6461.41,2420.22 6562.07,2422.56 6662.5,2435C 6862.8,2458.93 7054.8,2511.27 7238.5,2592C 7323.56,2630.2 7403.23,2676.86 7477.5,2732C 7523.85,2767.69 7565.69,2808.19 7603,2853.5C 7700.81,2978.5 7721.81,3115.83 7666,3265.5C 7645.2,3317.11 7618.2,3365.11 7585,3409.5C 7524.02,3488.82 7454.52,3559.98 7376.5,3623C 7241.05,3730.77 7096.39,3825.11 6942.5,3906C 6805.71,3977.93 6666.04,4041.6 6523.5,4097C 6342.67,4167.5 6158.33,4228.5 5970.5,4280C 5787.55,4328.59 5602.22,4365.92 5414.5,4392C 5208.3,4418.79 5001.3,4427.12 4793.5,4417C 4684.29,4412.36 4575.29,4405.03 4466.5,4395C 4334.02,4382.72 4201.69,4369.05 4069.5,4354C 3876.09,4331.66 3682.76,4308.66 3489.5,4285C 3192.3,4249.77 2894.3,4222.77 2595.5,4204C 2315.25,4184.88 2041.58,4217.54 1774.5,4302C 1719.58,4318.96 1666.58,4340.29 1615.5,4366C 1554.54,4396.27 1502.38,4437.77 1459,4490.5C 1456.57,4493.69 1454.41,4497.02 1452.5,4500.5C 968.167,4500.5 483.833,4500.5 -0.5,4500.5C -0.5,3000.17 -0.5,1499.83 -0.5,-0.5 Z"/></g>
<g><path style="opacity:1" fill="#010101" d="M 2598.5,2066.5 C 2596.39,2067.47 2594.06,2067.8 2591.5,2067.5C 2554.98,2024.21 2509.98,1992.71 2456.5,1973C 2386.43,1949.09 2315.43,1946.09 2243.5,1964C 2187.11,1980.77 2139.61,2011.27 2101,2055.5C 2039.69,2127.58 2007.35,2211.24 2004,2306.5C 2001.37,2353.56 2005.7,2399.89 2017,2445.5C 2040.57,2519.12 2084.4,2577.62 2148.5,2621C 2184.92,2641.87 2223.92,2655.87 2265.5,2663C 2332.99,2674.66 2400.66,2675.66 2468.5,2666C 2492.57,2664.93 2506.07,2652.43 2509,2628.5C 2509.33,2625.5 2509.67,2622.5 2510,2619.5C 2510.67,2573.83 2510.67,2528.17 2510,2482.5C 2509.56,2470.16 2505.39,2459.32 2497.5,2450C 2485.61,2441.34 2472.27,2437.84 2457.5,2439.5C 2457.5,2437.17 2457.5,2434.83 2457.5,2432.5C 2522.17,2432.5 2586.83,2432.5 2651.5,2432.5C 2651.5,2434.83 2651.5,2437.17 2651.5,2439.5C 2639.71,2438.97 2628.38,2440.8 2617.5,2445C 2610.19,2448.97 2605.03,2454.81 2602,2462.5C 2599.21,2472.65 2597.54,2482.99 2597,2493.5C 2596.07,2542.52 2596.4,2591.52 2598,2640.5C 2599.29,2652.38 2602.96,2663.38 2609,2673.5C 2615.38,2680.19 2623.22,2684.02 2632.5,2685C 2638.82,2685.5 2645.16,2685.67 2651.5,2685.5C 2651.5,2687.83 2651.5,2690.17 2651.5,2692.5C 2540.83,2692.67 2430.17,2692.5 2319.5,2692C 2264.19,2691.1 2210.86,2680.76 2159.5,2661C 2055.05,2613.88 1980.21,2537.71 1935,2432.5C 1901.23,2343.02 1904.56,2255.02 1945,2168.5C 1983.34,2087.82 2041.84,2026.32 2120.5,1984C 2200.62,1941.75 2285.95,1925.09 2376.5,1934C 2443.07,1940.01 2507.07,1955.84 2568.5,1981.5C 2578.66,2009.8 2588.66,2038.13 2598.5,2066.5 Z"/></g>
<g><path style="opacity:1" fill="#010101" d="M 4050.5,1932.5 C 4127.3,1926.83 4199.63,1941.66 4267.5,1977C 4378.1,2042.33 4434.44,2139.5 4436.5,2268.5C 4437.31,2398.64 4391.65,2509.14 4299.5,2600C 4228.93,2663.55 4145.93,2697.88 4050.5,2703C 3989.31,2708.52 3929.98,2700.85 3872.5,2680C 3787.01,2643.51 3724.85,2583.01 3686,2498.5C 3661.13,2438.2 3652.79,2375.53 3661,2310.5C 3671.82,2235.7 3697.82,2166.7 3739,2103.5C 3815.58,1997.28 3919.41,1940.28 4050.5,1932.5 Z"/></g>
<g><path style="opacity:1" fill="#000000" d="M 2888.5,1943.5 C 2955.5,1943.5 3022.5,1943.5 3089.5,1943.5C 3089.5,1946.17 3089.5,1948.83 3089.5,1951.5C 3075.42,1950.61 3062.09,1953.11 3049.5,1959C 3038.06,1966.72 3032.56,1977.56 3033,1991.5C 3032.33,2182.83 3032.33,2374.17 3033,2565.5C 3037,2623.73 3067.83,2656.57 3125.5,2664C 3134.79,2665.39 3144.12,2666.39 3153.5,2667C 3197.5,2667.67 3241.5,2667.67 3285.5,2667C 3310.6,2665.3 3333.6,2657.63 3354.5,2644C 3371.36,2629.46 3382.53,2611.3 3388,2589.5C 3394.23,2564.24 3397.73,2538.58 3398.5,2512.5C 3400.83,2512.5 3403.17,2512.5 3405.5,2512.5C 3405.5,2572.5 3405.5,2632.5 3405.5,2692.5C 3233.5,2692.5 3061.5,2692.5 2889.5,2692.5C 2889.5,2690.17 2889.5,2687.83 2889.5,2685.5C 2902.99,2685.45 2915.99,2682.95 2928.5,2678C 2934.23,2673.71 2938.4,2668.21 2941,2661.5C 2942,2657.5 2943,2653.5 2944,2649.5C 2945.16,2539.53 2945.66,2429.53 2945.5,2319.5C 2945.33,2211.83 2945.17,2104.17 2945,1996.5C 2944.31,1986.43 2941.98,1976.77 2938,1967.5C 2935.83,1964 2933,1961.17 2929.5,1959C 2916.44,1953.39 2902.77,1950.89 2888.5,1951.5C 2888.5,1948.83 2888.5,1946.17 2888.5,1943.5 Z"/></g>
<g><path style="opacity:1" fill="#000000" d="M 4721.5,1943.5 C 4800.83,1943.33 4880.17,1943.5 4959.5,1944C 4983.6,1944.31 5007.6,1945.97 5031.5,1949C 5099.13,1960.7 5146.63,1997.87 5174,2060.5C 5200.91,2152.46 5173.41,2222.96 5091.5,2272C 5185.97,2289.03 5239.8,2345.2 5253,2440.5C 5260.24,2523.51 5234.08,2593.67 5174.5,2651C 5151.59,2669.42 5125.59,2681.09 5096.5,2686C 5076.95,2689.1 5057.29,2691.1 5037.5,2692C 4931.83,2692.5 4826.17,2692.67 4720.5,2692.5C 4720.5,2690.17 4720.5,2687.83 4720.5,2685.5C 4734.31,2686.28 4747.31,2683.45 4759.5,2677C 4763.49,2674.01 4766.32,2670.18 4768,2665.5C 4770.05,2657.58 4771.72,2649.58 4773,2641.5C 4774.15,2532.02 4774.65,2422.52 4774.5,2313C 4774.33,2207.5 4774.17,2102 4774,1996.5C 4776.05,1972.72 4765.55,1958.22 4742.5,1953C 4735.55,1951.77 4728.55,1951.27 4721.5,1951.5C 4721.5,1948.83 4721.5,1946.17 4721.5,1943.5 Z"/></g>
<g><path style="opacity:1" fill="#020202" d="M 5929.5,1969.5 C 5844.67,1968.5 5759.67,1968.17 5674.5,1968.5C 5674.5,2080.83 5674.5,2193.17 5674.5,2305.5C 5753.34,2305.83 5832,2305.5 5910.5,2304.5C 5921.37,2305.07 5932.04,2303.9 5942.5,2301C 5951.13,2297.09 5956.13,2290.42 5957.5,2281C 5959.81,2280.5 5962.14,2280.34 5964.5,2280.5C 5964.5,2303.83 5964.5,2327.17 5964.5,2350.5C 5961.83,2350.5 5959.17,2350.5 5956.5,2350.5C 5955.66,2342.98 5952.32,2336.81 5946.5,2332C 5937.24,2327.97 5927.58,2326.14 5917.5,2326.5C 5836.67,2325.5 5755.67,2325.17 5674.5,2325.5C 5674.17,2407 5674.5,2488.34 5675.5,2569.5C 5675.65,2588.39 5677.82,2607.05 5682,2625.5C 5687.08,2643.88 5698.58,2656.05 5716.5,2662C 5728.69,2664.66 5741.02,2666.32 5753.5,2667C 5820.17,2667.67 5886.83,2667.67 5953.5,2667C 5965.23,2666.7 5976.9,2665.7 5988.5,2664C 6011.43,2659.3 6026.26,2645.8 6033,2623.5C 6033.11,2604.87 6036.44,2586.87 6043,2569.5C 6060.67,2530.49 6088.17,2500.32 6125.5,2479C 6166.3,2456.27 6209.64,2440.27 6255.5,2431C 6336,2415.04 6417.33,2408.38 6499.5,2411C 6746.19,2419.15 6982.85,2470.48 7209.5,2565C 7299.75,2602.95 7384.75,2649.95 7464.5,2706C 7523.95,2748.02 7576.12,2797.85 7621,2855.5C 7659.55,2906.59 7686.21,2963.26 7701,3025.5C 7715.69,3114.97 7706.02,3201.63 7672,3285.5C 7640.52,3355.17 7599.52,3418.5 7549,3475.5C 7489.82,3541.36 7425.65,3601.53 7356.5,3656C 7286.12,3710.37 7213.12,3761.03 7137.5,3808C 6956.91,3918.46 6768.57,4013.13 6572.5,4092C 6375.67,4171.28 6174,4238.61 5967.5,4294C 5737.13,4356.22 5503.13,4398.88 5265.5,4422C 5147.05,4432.37 5028.39,4436.03 4909.5,4433C 4803.05,4429.92 4696.72,4424.59 4590.5,4417C 4449.65,4405.86 4308.98,4392.86 4168.5,4378C 3927.08,4350.32 3685.75,4321.98 3444.5,4293C 3241.82,4269.97 3038.82,4250.3 2835.5,4234C 2726.96,4225.73 2618.3,4219.73 2509.5,4216C 2274.54,4206.77 2044.54,4235.11 1819.5,4301C 1738.38,4325.27 1660.72,4357.93 1586.5,4399C 1548.57,4420.91 1514.74,4448.08 1485,4480.5C 1479.54,4486.78 1474.7,4493.45 1470.5,4500.5C 1464.5,4500.5 1458.5,4500.5 1452.5,4500.5C 1454.41,4497.02 1456.57,4493.69 1459,4490.5C 1502.38,4437.77 1554.54,4396.27 1615.5,4366C 1666.58,4340.29 1719.58,4318.96 1774.5,4302C 2041.58,4217.54 2315.25,4184.88 2595.5,4204C 2894.3,4222.77 3192.3,4249.77 3489.5,4285C 3682.76,4308.66 3876.09,4331.66 4069.5,4354C 4201.69,4369.05 4334.02,4382.72 4466.5,4395C 4575.29,4405.03 4684.29,4412.36 4793.5,4417C 5001.3,4427.12 5208.3,4418.79 5414.5,4392C 5602.22,4365.92 5787.55,4328.59 5970.5,4280C 6158.33,4228.5 6342.67,4167.5 6523.5,4097C 6666.04,4041.6 6805.71,3977.93 6942.5,3906C 7096.39,3825.11 7241.05,3730.77 7376.5,3623C 7454.52,3559.98 7524.02,3488.82 7585,3409.5C 7618.2,3365.11 7645.2,3317.11 7666,3265.5C 7721.81,3115.83 7700.81,2978.5 7603,2853.5C 7565.69,2808.19 7523.85,2767.69 7477.5,2732C 7403.23,2676.86 7323.56,2630.2 7238.5,2592C 7054.8,2511.27 6862.8,2458.93 6662.5,2435C 6562.07,2422.56 6461.41,2420.22 6360.5,2428C 6303.52,2433.06 6247.85,2444.4 6193.5,2462C 6157.27,2474.11 6124.6,2492.45 6095.5,2517C 6070.19,2539.78 6054.36,2567.94 6048,2601.5C 6047.5,2631.83 6047.33,2662.16 6047.5,2692.5C 5876.83,2692.5 5706.17,2692.5 5535.5,2692.5C 5535.5,2689.83 5535.5,2687.17 5535.5,2684.5C 5541.86,2684.4 5548.19,2683.9 5554.5,2683C 5573.59,2680.91 5584.42,2670.41 5587,2651.5C 5588.16,2543.02 5588.66,2434.52 5588.5,2326C 5588.33,2220.17 5588.17,2114.33 5588,2008.5C 5587.74,1994.76 5585.41,1981.43 5581,1968.5C 5578.87,1965.37 5576.37,1962.54 5573.5,1960C 5561.55,1953.95 5548.88,1951.45 5535.5,1952.5C 5535.5,1949.5 5535.5,1946.5 5535.5,1943.5C 5692.5,1943.5 5849.5,1943.5 6006.5,1943.5C 6006.5,1977.83 6006.5,2012.17 6006.5,2046.5C 6003.55,2046.78 6000.72,2046.44 5998,2045.5C 5994.05,2028.05 5988.71,2011.05 5982,1994.5C 5979.55,1987.76 5975.71,1981.93 5970.5,1977C 5957.48,1971.29 5943.81,1968.79 5929.5,1969.5 Z"/></g>
<g><path style="opacity:1" fill="#fefefe" d="M 4861.5,1959.5 C 4905.39,1957.37 4948.73,1961.2 4991.5,1971C 5054.82,1989.65 5091.99,2031.49 5103,2096.5C 5109.9,2150.22 5098.57,2199.56 5069,2244.5C 5056.5,2260.33 5040.67,2271.49 5021.5,2278C 5002.95,2283.7 4983.95,2287.03 4964.5,2288C 4930.17,2288.5 4895.83,2288.67 4861.5,2288.5C 4861.5,2178.83 4861.5,2069.17 4861.5,1959.5 Z"/></g>
<g><path style="opacity:1" fill="#7f7f7f" d="M 5929.5,1969.5 C 5844.83,1969.5 5760.17,1969.5 5675.5,1969.5C 5675.5,2081.17 5675.5,2192.83 5675.5,2304.5C 5753.83,2304.5 5832.17,2304.5 5910.5,2304.5C 5832,2305.5 5753.34,2305.83 5674.5,2305.5C 5674.5,2193.17 5674.5,2080.83 5674.5,1968.5C 5759.67,1968.17 5844.67,1968.5 5929.5,1969.5 Z"/></g>
<g><path style="opacity:1" fill="#fefefe" d="M 4002.5,1971.5 C 4047.4,1972.53 4090.4,1981.7 4131.5,1999C 4233.74,2040.91 4309.24,2111.41 4358,2210.5C 4387.58,2276.82 4395.91,2345.82 4383,2417.5C 4351.15,2536.35 4276.65,2614.52 4159.5,2652C 4057.7,2678.95 3965.36,2660.28 3882.5,2596C 3819.28,2546.32 3772.45,2484.48 3742,2410.5C 3715.59,2341.03 3709.25,2269.7 3723,2196.5C 3738.13,2136.09 3769.63,2085.92 3817.5,2046C 3870.47,1999.73 3932.14,1974.89 4002.5,1971.5 Z"/></g>
<g><path style="opacity:1" fill="#878787" d="M 2598.5,2066.5 C 2599.04,2066.56 2599.38,2066.89 2599.5,2067.5C 2596.69,2068.8 2594.02,2068.8 2591.5,2067.5C 2594.06,2067.8 2596.39,2067.47 2598.5,2066.5 Z"/></g>
<g><path style="opacity:1" fill="#fefefe" d="M 4861.5,2304.5 C 4900.17,2304.33 4938.83,2304.5 4977.5,2305C 5006.11,2305.6 5034.44,2308.6 5062.5,2314C 5079.98,2318.5 5095.31,2326.83 5108.5,2339C 5145.33,2376.17 5165.83,2421 5170,2473.5C 5173.05,2506.05 5171.72,2538.38 5166,2570.5C 5154.53,2622.97 5122.7,2655.13 5070.5,2667C 5031.63,2673.59 4992.63,2674.25 4953.5,2669C 4928.99,2666.04 4906.99,2657.04 4887.5,2642C 4869.99,2624.14 4861.49,2602.64 4862,2577.5C 4861.5,2486.5 4861.33,2395.5 4861.5,2304.5 Z"/></g>
<g><path style="opacity:1" fill="#7f7f7f" d="M 5917.5,2326.5 C 5836.83,2326.5 5756.17,2326.5 5675.5,2326.5C 5675.5,2407.5 5675.5,2488.5 5675.5,2569.5C 5674.5,2488.34 5674.17,2407 5674.5,2325.5C 5755.67,2325.17 5836.67,2325.5 5917.5,2326.5 Z"/></g>
</svg>
